<svg xmlns="http://www.w3.org/2000/svg" width="711" height="370" viewBox="0 0 711 370">
  <g id="Gruppe_385" data-name="Gruppe 385" transform="translate(-11957 8315)">
    <rect id="Rechteck_30" data-name="Rechteck 30" width="711" height="370" transform="translate(11957 -8315)" fill="none"/>
    <g id="Gruppe_384" data-name="Gruppe 384" transform="translate(41 48.478)">
      <g id="Gruppe_89" data-name="Gruppe 89" transform="translate(11956 -8204.054)">
        <g id="Gruppe_87" data-name="Gruppe 87" transform="translate(52.713 52.713)">
          <rect id="Rechteck_35" data-name="Rechteck 35" width="52.713" height="52.713" fill="#afe108"/>
        </g>
        <g id="Gruppe_88" data-name="Gruppe 88">
          <rect id="Rechteck_36" data-name="Rechteck 36" width="52.713" height="52.713" fill="#afe108"/>
        </g>
      </g>
      <g id="Gruppe_90" data-name="Gruppe 90" transform="translate(12008.713 -8309.479)">
        <path id="Pfad_450" data-name="Pfad 450" d="M171.6,0V158.138H118.881v-52.7H66.207V52.65H13.465V0H66.385L92.534,26.181,118.7,0Z" transform="translate(-13.465)" fill="#01363d"/>
      </g>
      <path id="Pfad_477" data-name="Pfad 477" d="M69.214,53.878h6.738a.869.869,0,0,1,.869.869v48.96a.843.843,0,0,1-.254.615.818.818,0,0,1-.615.251H69.288a.818.818,0,0,1-.615-.251.843.843,0,0,1-.254-.615V69.377c0-.2-.047-.3-.145-.325s-.2.035-.29.18L60.307,81.9a1.039,1.039,0,0,1-1.014.579H57.919a1.036,1.036,0,0,1-1.014-.579L49.228,69.3c-.1-.145-.2-.2-.29-.18s-.145.133-.145.325v34.259a.842.842,0,0,1-.254.615.83.83,0,0,1-.615.251H41.261a.818.818,0,0,1-.615-.251.843.843,0,0,1-.254-.615V54.747a.869.869,0,0,1,.869-.869h6.663a1.039,1.039,0,0,1,1.014.579l9.486,15.135q.217.435.435,0L68.2,54.457A1.026,1.026,0,0,1,69.214,53.878Z" transform="translate(12073.739 -8152.428)" fill="#01363d"/>
      <path id="Pfad_478" data-name="Pfad 478" d="M83.234,60.866a.836.836,0,0,1-.615.254H62.485a.318.318,0,0,0-.36.36V75.1a.321.321,0,0,0,.36.364H75.376a.856.856,0,0,1,.869.865v5.508a.856.856,0,0,1-.869.865H62.485a.322.322,0,0,0-.36.364V96.969a.321.321,0,0,0,.36.364H82.619a.833.833,0,0,1,.615.251.853.853,0,0,1,.258.615v5.508a.846.846,0,0,1-.258.615.818.818,0,0,1-.615.251H54.592a.818.818,0,0,1-.615-.251.828.828,0,0,1-.254-.615V54.747a.821.821,0,0,1,.254-.615.836.836,0,0,1,.615-.254H82.619a.876.876,0,0,1,.873.869v5.5A.84.84,0,0,1,83.234,60.866Z" transform="translate(12112.598 -8152.428)" fill="#01363d"/>
      <path id="Pfad_479" data-name="Pfad 479" d="M65.235,104.322a.824.824,0,0,1-.251-.615V54.747a.818.818,0,0,1,.251-.615.845.845,0,0,1,.619-.254h14.99q7.023,0,11.263,3.911a13.517,13.517,0,0,1,4.236,10.429V90.232a13.511,13.511,0,0,1-4.236,10.429q-4.24,3.911-11.263,3.911H65.853A.827.827,0,0,1,65.235,104.322Zm8.511-6.988,7.168-.074a6.322,6.322,0,0,0,5-2.138,9.085,9.085,0,0,0,2.028-5.829V69.158a8.571,8.571,0,0,0-1.918-5.868,6.492,6.492,0,0,0-5.109-2.169H73.746a.319.319,0,0,0-.364.36V96.969A.322.322,0,0,0,73.746,97.334Z" transform="translate(12145.423 -8152.428)" fill="#01363d"/>
      <path id="Pfad_480" data-name="Pfad 480" d="M77.085,104.322a.827.827,0,0,1-.254-.615V54.747a.821.821,0,0,1,.254-.615.834.834,0,0,1,.611-.254h6.663a.845.845,0,0,1,.619.254.836.836,0,0,1,.254.615v48.96a.843.843,0,0,1-.254.615.827.827,0,0,1-.619.251H77.7A.815.815,0,0,1,77.085,104.322Z" transform="translate(12179.955 -8152.428)" fill="#01363d"/>
      <path id="Pfad_481" data-name="Pfad 481" d="M110.471,103.852,108.592,96.1a.345.345,0,0,0-.364-.29H93.312a.343.343,0,0,0-.364.29l-1.813,7.752a.948.948,0,0,1-1.014.72H83.243c-.63,0-.869-.313-.724-.94L95.7,54.6a.954.954,0,0,1,1.014-.724h8.257a.954.954,0,0,1,1.014.724l13.182,49.03.074.29c0,.435-.27.65-.8.65h-6.953A.958.958,0,0,1,110.471,103.852ZM94.76,89.112a.457.457,0,0,0,.29.106h11.443a.455.455,0,0,0,.286-.106.269.269,0,0,0,.078-.325l-5.943-23.756c-.051-.145-.121-.219-.219-.219s-.168.074-.215.219L94.686,88.787A.258.258,0,0,0,94.76,89.112Z" transform="translate(12196.415 -8152.428)" fill="#01363d"/>
      <path id="Pfad_482" data-name="Pfad 482" d="M95.632,104.322a.843.843,0,0,1-.254-.615V54.747a.836.836,0,0,1,.254-.615.845.845,0,0,1,.619-.254h6.659a.869.869,0,0,1,.873.869V96.969a.319.319,0,0,0,.36.364h19.919a.856.856,0,0,1,.865.865v5.508a.839.839,0,0,1-.251.615.83.83,0,0,1-.615.251H96.251A.827.827,0,0,1,95.632,104.322Z" transform="translate(12234.019 -8152.428)" fill="#01363d"/>
      <path id="Pfad_483" data-name="Pfad 483" d="M135.943,60.866a.843.843,0,0,1-.615.254H115.2a.318.318,0,0,0-.364.36V75.1a.32.32,0,0,0,.364.364h12.888a.839.839,0,0,1,.615.251.849.849,0,0,1,.255.615v5.508a.862.862,0,0,1-.869.865H115.2a.322.322,0,0,0-.364.364V96.969a.32.32,0,0,0,.364.364h20.131a.839.839,0,0,1,.615.251.849.849,0,0,1,.254.615v5.508a.843.843,0,0,1-.254.615.824.824,0,0,1-.615.251H107.3a.809.809,0,0,1-.611-.251.831.831,0,0,1-.258-.615V54.747a.876.876,0,0,1,.869-.869h28.031a.869.869,0,0,1,.869.869v5.5A.836.836,0,0,1,135.943,60.866Z" transform="translate(12266.229 -8152.428)" fill="#01363d"/>
      <path id="Pfad_484" data-name="Pfad 484" d="M124.922,103.884a13.021,13.021,0,0,1-5.61-4.854,13.323,13.323,0,0,1-1.993-7.274V89.869a.827.827,0,0,1,.255-.615.839.839,0,0,1,.619-.254h6.518a.849.849,0,0,1,.615.254.839.839,0,0,1,.251.615v1.449a6.506,6.506,0,0,0,2.173,5.07,8.447,8.447,0,0,0,5.868,1.954,7.244,7.244,0,0,0,5.215-1.734,6.044,6.044,0,0,0,1.809-4.565,5.613,5.613,0,0,0-1.014-3.367,10.466,10.466,0,0,0-2.858-2.607q-1.85-1.2-5.684-3.222a75.818,75.818,0,0,1-7.1-4.13,16.224,16.224,0,0,1-4.526-4.635,12.285,12.285,0,0,1-1.848-6.879,12.4,12.4,0,0,1,4.166-9.854q4.163-3.617,10.97-3.617a18.715,18.715,0,0,1,8.331,1.773,13.037,13.037,0,0,1,5.579,5.035A14.21,14.21,0,0,1,148.607,68v1.523a.839.839,0,0,1-.251.615.851.851,0,0,1-.619.254H141.22a.862.862,0,0,1-.865-.869V68.141a6.849,6.849,0,0,0-2.1-5.14,7.8,7.8,0,0,0-5.653-2.028,7.094,7.094,0,0,0-4.925,1.629,6.478,6.478,0,0,0-.865,7.857,9.759,9.759,0,0,0,2.858,2.607q1.92,1.233,5.829,3.187,5.221,2.971,7.677,4.635a14.812,14.812,0,0,1,4.169,4.31,11.755,11.755,0,0,1,1.7,6.483,12.848,12.848,0,0,1-4.271,10.14q-4.275,3.764-11.443,3.766A19.609,19.609,0,0,1,124.922,103.884Z" transform="translate(12297.975 -8152.859)" fill="#01363d"/>
      <path id="Pfad_485" data-name="Pfad 485" d="M136.429,103.884a12.966,12.966,0,0,1-5.614-4.854,13.324,13.324,0,0,1-1.993-7.274V89.869a.828.828,0,0,1,.254-.615.836.836,0,0,1,.615-.254h6.522a.849.849,0,0,1,.615.254.839.839,0,0,1,.251.615v1.449a6.52,6.52,0,0,0,2.173,5.07,8.447,8.447,0,0,0,5.868,1.954,7.244,7.244,0,0,0,5.215-1.734,6.044,6.044,0,0,0,1.809-4.565,5.614,5.614,0,0,0-1.014-3.367,10.466,10.466,0,0,0-2.858-2.607q-1.85-1.2-5.688-3.222a76.2,76.2,0,0,1-7.1-4.13,16.224,16.224,0,0,1-4.526-4.635,12.285,12.285,0,0,1-1.848-6.879,12.4,12.4,0,0,1,4.166-9.854q4.163-3.617,10.973-3.617a18.71,18.71,0,0,1,8.327,1.773,13.038,13.038,0,0,1,5.579,5.035A14.211,14.211,0,0,1,160.11,68v1.523a.862.862,0,0,1-.869.869h-6.518a.836.836,0,0,1-.615-.254.827.827,0,0,1-.255-.615V68.141a6.835,6.835,0,0,0-2.1-5.14,7.783,7.783,0,0,0-5.645-2.028,7.091,7.091,0,0,0-4.929,1.629,5.8,5.8,0,0,0-1.809,4.526,5.736,5.736,0,0,0,.944,3.332,9.809,9.809,0,0,0,2.858,2.607Q143.09,74.3,147,76.253q5.221,2.971,7.681,4.635a14.9,14.9,0,0,1,4.165,4.31,11.755,11.755,0,0,1,1.7,6.483,12.847,12.847,0,0,1-4.271,10.14q-4.275,3.764-11.443,3.766A19.591,19.591,0,0,1,136.429,103.884Z" transform="translate(12331.505 -8152.859)" fill="#01363d"/>
      <path id="Pfad_486" data-name="Pfad 486" d="M148.065,103.7a13.7,13.7,0,0,1-5.645-5.54,16.746,16.746,0,0,1-1.993-8.292V69.444a16.594,16.594,0,0,1,1.993-8.217,13.706,13.706,0,0,1,5.645-5.544,19.363,19.363,0,0,1,16.952,0,13.943,13.943,0,0,1,5.685,5.544,16.405,16.405,0,0,1,2.028,8.217V89.869A16.554,16.554,0,0,1,170.7,98.16a13.934,13.934,0,0,1-5.685,5.54,19.328,19.328,0,0,1-16.952,0Zm14.125-7.564a8.3,8.3,0,0,0,2.138-5.9v-21a8.4,8.4,0,0,0-2.138-5.978,7.42,7.42,0,0,0-5.684-2.278,7.214,7.214,0,0,0-5.575,2.278,8.48,8.48,0,0,0-2.1,5.978v21a8.378,8.378,0,0,0,2.1,5.9,7.23,7.23,0,0,0,5.575,2.282A7.437,7.437,0,0,0,162.19,96.136Z" transform="translate(12365.332 -8152.859)" fill="#01363d"/>
      <path id="Pfad_487" data-name="Pfad 487" d="M177.823,54.132a.836.836,0,0,1,.615-.254H185.1a.851.851,0,0,1,.619.254.833.833,0,0,1,.251.615v48.96a.856.856,0,0,1-.869.865h-7.023a1.108,1.108,0,0,1-1.014-.65L161.275,71.476c-.1-.145-.2-.2-.294-.18s-.145.133-.145.325l.074,32.087a.842.842,0,0,1-.255.615.824.824,0,0,1-.615.251h-6.663a.818.818,0,0,1-.615-.251.843.843,0,0,1-.254-.615V54.747a.869.869,0,0,1,.869-.869h6.953a1.027,1.027,0,0,1,1.014.65L177.208,87.12c.094.145.192.207.29.18s.141-.129.141-.325l-.07-32.228A.821.821,0,0,1,177.823,54.132Z" transform="translate(12400.551 -8152.428)" fill="#01363d"/>
    </g>
  </g>
</svg>
