<svg width="163" height="93" viewBox="0 0 163 93" fill="none" xmlns="http://www.w3.org/2000/svg">
    <path d="M27.9025 40.5363H14.4375V54.0013H27.9025V40.5363Z" fill="#AFE108"/>
    <path d="M14.4377 27.0713H0.972656V40.5363H14.4377V27.0713Z" fill="#AFE108"/>
    <path d="M54.8305 0.142265V40.5363H41.3635V27.0753H27.9095V13.5913H14.4375V0.142265H27.9545L34.6335 6.82927L41.3185 0.142265H54.8305Z" fill="#03373E"/>
    <path d="M41.3538 80.8983V73.5883C41.3527 73.5739 41.3548 73.5594 41.3599 73.5459C41.3649 73.5323 41.3729 73.5201 41.3831 73.5099C41.3934 73.4997 41.4057 73.4919 41.4193 73.487C41.4329 73.482 41.4474 73.4801 41.4618 73.4813H43.9988C44.6131 73.4488 45.2172 73.6479 45.6918 74.0393C45.9019 74.2299 46.0673 74.4647 46.1761 74.7268C46.2848 74.9889 46.3342 75.2718 46.3208 75.5553V78.9313C46.3342 79.2147 46.2848 79.4976 46.1761 79.7597C46.0673 80.0218 45.9019 80.2566 45.6918 80.4473C45.2174 80.8391 44.6131 81.0382 43.9988 81.0053H41.4618C41.4474 81.0065 41.4329 81.0045 41.4193 80.9996C41.4057 80.9946 41.3934 80.9868 41.3831 80.9766C41.3729 80.9665 41.3649 80.9542 41.3599 80.9407C41.3548 80.9271 41.3527 80.9127 41.3538 80.8983ZM42.1608 80.3393H44.0318C44.235 80.3494 44.4382 80.3185 44.6293 80.2484C44.8203 80.1783 44.9953 80.0704 45.1438 79.9313C45.2846 79.7862 45.3941 79.6136 45.4653 79.4244C45.5366 79.2351 45.568 79.0332 45.5578 78.8313V75.6623C45.5683 75.4598 45.5375 75.2573 45.4672 75.0671C45.3969 74.877 45.2885 74.7032 45.1488 74.5563C45.0004 74.4151 44.8249 74.3055 44.6329 74.2344C44.4408 74.1632 44.2363 74.1319 44.0318 74.1423H42.1608C42.1549 74.1414 42.149 74.142 42.1434 74.1438C42.1378 74.1457 42.1327 74.1488 42.1285 74.153C42.1244 74.1572 42.1212 74.1623 42.1193 74.1679C42.1175 74.1735 42.1169 74.1794 42.1178 74.1853V80.2913C42.1153 80.2976 42.1146 80.3045 42.1157 80.3113C42.1168 80.318 42.1198 80.3243 42.1242 80.3295C42.1286 80.3347 42.1343 80.3387 42.1407 80.3409C42.1472 80.3432 42.1541 80.3436 42.1608 80.3423V80.3393Z" fill="#03373E"/>
    <path d="M48.1712 74.4053C48.06 74.2885 47.998 74.1335 47.998 73.9723C47.998 73.8111 48.06 73.656 48.1712 73.5393C48.2888 73.4325 48.4419 73.3734 48.6007 73.3734C48.7595 73.3734 48.9126 73.4325 49.0302 73.5393C49.1414 73.6539 49.2032 73.8076 49.2023 73.9674C49.2014 74.1271 49.1378 74.2801 49.0253 74.3935C48.9129 74.5069 48.7604 74.5717 48.6007 74.5739C48.441 74.5761 48.2868 74.5155 48.1712 74.4053ZM48.1922 80.8873V75.6623C48.1911 75.6479 48.1932 75.6334 48.1983 75.6199C48.2033 75.6063 48.2113 75.5941 48.2215 75.5839C48.2318 75.5737 48.2442 75.5659 48.2577 75.561C48.2713 75.556 48.2858 75.5541 48.3002 75.5553H48.8472C48.8616 75.5541 48.8761 75.556 48.8897 75.561C48.9032 75.5659 48.9156 75.5737 48.9258 75.5839C48.9361 75.5941 48.944 75.6063 48.9491 75.6199C48.9542 75.6334 48.9563 75.6479 48.9552 75.6623V80.8873C48.9563 80.9017 48.9542 80.9161 48.9491 80.9297C48.944 80.9432 48.9361 80.9555 48.9258 80.9656C48.9156 80.9758 48.9032 80.9836 48.8897 80.9886C48.8761 80.9935 48.8616 80.9955 48.8472 80.9943H48.3002C48.2855 80.9968 48.2704 80.9958 48.2561 80.9914C48.2419 80.987 48.2289 80.9792 48.2182 80.9687C48.2076 80.9583 48.1996 80.9454 48.1949 80.9313C48.1902 80.9171 48.1899 80.902 48.1922 80.8873Z" fill="#03373E"/>
    <path d="M54.5224 75.5663H55.0714C55.0858 75.5651 55.1003 75.567 55.1139 75.572C55.1275 75.5769 55.1398 75.5847 55.1501 75.5949C55.1603 75.6051 55.1683 75.6173 55.1733 75.6309C55.1784 75.6444 55.1805 75.6589 55.1794 75.6733V80.8233C55.2077 81.1505 55.1598 81.4799 55.0396 81.7855C54.9194 82.0912 54.73 82.3649 54.4864 82.5853C53.9341 82.9865 53.26 83.1844 52.5784 83.1453C52.4134 83.1453 52.2884 83.1453 52.2024 83.1343C52.1874 83.1345 52.1724 83.1315 52.1586 83.1255C52.1447 83.1195 52.1323 83.1107 52.1222 83.0995C52.1121 83.0883 52.1045 83.0751 52.0998 83.0608C52.0952 83.0464 52.0937 83.0312 52.0954 83.0163L52.1164 82.5163C52.1153 82.5015 52.1176 82.4866 52.1229 82.4728C52.1283 82.4589 52.1366 82.4465 52.1474 82.4363C52.1576 82.4272 52.1699 82.4209 52.1832 82.4179C52.1965 82.4149 52.2104 82.4154 52.2234 82.4193L52.5134 82.4303C53.0286 82.4746 53.5429 82.3354 53.9654 82.0373C54.1267 81.8759 54.2507 81.6812 54.3286 81.4668C54.4065 81.2524 54.4365 81.0235 54.4164 80.7963V80.3963C54.4174 80.3903 54.4163 80.3842 54.4131 80.3791C54.41 80.374 54.4052 80.3701 54.3994 80.3683C54.3894 80.3683 54.3774 80.3683 54.3624 80.3853C54.1972 80.5984 53.9828 80.7683 53.7376 80.8804C53.4924 80.9926 53.2237 81.0436 52.9544 81.0293C52.5114 81.0364 52.0771 80.905 51.7124 80.6533C51.3478 80.4001 51.0896 80.0212 50.9874 79.5893C50.8866 79.1599 50.8432 78.7191 50.8584 78.2783C50.8584 77.9623 50.8664 77.6973 50.8854 77.4833C50.8991 77.2858 50.9367 77.0907 50.9974 76.9023C51.1146 76.4907 51.3598 76.1272 51.6974 75.8643C52.046 75.5992 52.4746 75.4609 52.9124 75.4723C53.1874 75.4548 53.4626 75.5033 53.715 75.6137C53.9674 75.7242 54.1897 75.8934 54.3634 76.1073C54.3784 76.1203 54.3904 76.1243 54.4004 76.1173C54.406 76.1141 54.4105 76.1094 54.4135 76.1037C54.4166 76.0981 54.4179 76.0917 54.4174 76.0853V75.6653C54.4175 75.6518 54.4204 75.6385 54.4258 75.6261C54.4312 75.6138 54.439 75.6026 54.4488 75.5934C54.4586 75.5841 54.4702 75.577 54.4829 75.5723C54.4955 75.5676 54.509 75.5656 54.5224 75.5663ZM54.4044 78.9663C54.4111 78.8083 54.4148 78.5789 54.4154 78.2783C54.4154 77.9129 54.4118 77.6673 54.4044 77.5413C54.3986 77.4234 54.3805 77.3064 54.3504 77.1923C54.2996 76.9018 54.1498 76.6378 53.9264 76.4453C53.6893 76.2409 53.3843 76.1328 53.0714 76.1423C52.7612 76.1332 52.458 76.2362 52.2174 76.4323C51.9824 76.6281 51.8116 76.8901 51.7274 77.1843C51.6426 77.536 51.6066 77.8977 51.6204 78.2593C51.6025 78.6246 51.6386 78.9905 51.7274 79.3453C51.7958 79.6484 51.967 79.9185 52.2121 80.1095C52.4571 80.3006 52.7608 80.4009 53.0714 80.3933C53.3856 80.4058 53.6934 80.3026 53.9364 80.1033C54.1599 79.9128 54.3102 79.6504 54.3614 79.3613C54.3858 79.2299 54.4002 79.0968 54.4044 78.9633V78.9663Z" fill="#03373E"/>
    <path d="M57.1349 74.4053C57.0244 74.2882 56.9629 74.1333 56.9629 73.9723C56.9629 73.8113 57.0244 73.6564 57.1349 73.5393C57.2525 73.4325 57.4056 73.3734 57.5644 73.3734C57.7232 73.3734 57.8763 73.4325 57.9939 73.5393C58.1051 73.6539 58.1669 73.8076 58.166 73.9674C58.1651 74.1271 58.1015 74.2801 57.9891 74.3935C57.8766 74.5069 57.7241 74.5717 57.5644 74.5739C57.4047 74.5761 57.2505 74.5155 57.1349 74.4053ZM57.1559 80.8873V75.6623C57.1537 75.6477 57.1549 75.6328 57.1595 75.6189C57.1641 75.6049 57.172 75.5922 57.1824 75.5817C57.1928 75.5713 57.2055 75.5635 57.2195 75.5589C57.2335 75.5543 57.2483 75.5531 57.2629 75.5553H57.8119C57.8263 75.5541 57.8408 75.556 57.8544 75.561C57.8679 75.5659 57.8803 75.5737 57.8906 75.5839C57.9008 75.5941 57.9088 75.6063 57.9138 75.6199C57.9189 75.6334 57.921 75.6479 57.9199 75.6623V80.8873C57.921 80.9017 57.9189 80.9161 57.9138 80.9297C57.9088 80.9432 57.9008 80.9555 57.8906 80.9656C57.8803 80.9758 57.8679 80.9836 57.8544 80.9886C57.8408 80.9935 57.8263 80.9955 57.8119 80.9943H57.2629C57.2483 80.9965 57.2335 80.9952 57.2195 80.9906C57.2055 80.986 57.1928 80.9782 57.1824 80.9678C57.172 80.9574 57.1641 80.9447 57.1595 80.9307C57.1549 80.9167 57.1537 80.9018 57.1559 80.8873Z" fill="#03373E"/>
    <path d="M62.3601 76.2013H61.1451C61.1392 76.2002 61.1332 76.2006 61.1275 76.2024C61.1218 76.2041 61.1166 76.2073 61.1124 76.2115C61.1081 76.2157 61.105 76.2209 61.1032 76.2266C61.1014 76.2323 61.1011 76.2384 61.1021 76.2443V79.4143C61.0884 79.5447 61.1018 79.6765 61.1416 79.8015C61.1813 79.9264 61.2466 80.0418 61.3331 80.1403C61.5409 80.2974 61.7995 80.3722 62.0591 80.3503H62.3271C62.3415 80.3491 62.356 80.351 62.3696 80.3559C62.3832 80.3609 62.3955 80.3687 62.4058 80.3789C62.416 80.3891 62.424 80.4013 62.429 80.4149C62.4341 80.4284 62.4362 80.4429 62.4351 80.4573V80.8983C62.4362 80.9127 62.4341 80.9271 62.429 80.9407C62.424 80.9542 62.416 80.9665 62.4058 80.9766C62.3955 80.9868 62.3832 80.9946 62.3696 80.9996C62.356 81.0045 62.3415 81.0065 62.3271 81.0053C62.2411 81.0133 62.1091 81.0163 61.9271 81.0163C61.5164 81.0439 61.1073 80.9426 60.7571 80.7263C60.6095 80.592 60.4961 80.4244 60.4265 80.2373C60.357 80.0503 60.3332 79.8494 60.3571 79.6513V76.2423C60.3582 76.2364 60.3578 76.2303 60.356 76.2246C60.3542 76.2189 60.3511 76.2137 60.3469 76.2095C60.3427 76.2053 60.3375 76.2021 60.3318 76.2004C60.3261 76.1986 60.32 76.1982 60.3141 76.1993H59.6581C59.6437 76.2003 59.6292 76.1982 59.6157 76.1932C59.6022 76.1881 59.5899 76.1802 59.5797 76.1699C59.5696 76.1596 59.5618 76.1473 59.5568 76.1337C59.5519 76.1201 59.5499 76.1057 59.5511 76.0913V75.6713C59.5501 75.6569 59.5521 75.6426 59.5571 75.6291C59.5622 75.6157 59.57 75.6034 59.5801 75.5933C59.5903 75.5831 59.6025 75.5753 59.616 75.5703C59.6294 75.5653 59.6438 75.5632 59.6581 75.5643H60.3141C60.32 75.5651 60.3259 75.5646 60.3315 75.5627C60.3371 75.5608 60.3422 75.5577 60.3464 75.5535C60.3505 75.5493 60.3537 75.5443 60.3556 75.5387C60.3574 75.5331 60.358 75.5271 60.3571 75.5213V74.2763C60.3559 74.2618 60.3579 74.2472 60.3629 74.2335C60.3679 74.2199 60.3758 74.2075 60.3861 74.1972C60.3963 74.1869 60.4087 74.179 60.4224 74.174C60.4361 74.169 60.4506 74.1671 60.4651 74.1683H60.9921C61.0065 74.1672 61.021 74.1693 61.0345 74.1743C61.0481 74.1794 61.0603 74.1874 61.0705 74.1976C61.0807 74.2079 61.0885 74.2202 61.0934 74.2338C61.0984 74.2474 61.1003 74.2619 61.0991 74.2763V75.5233C61.0983 75.5291 61.0988 75.5351 61.1007 75.5407C61.1026 75.5463 61.1057 75.5513 61.1099 75.5555C61.114 75.5597 61.1191 75.5628 61.1247 75.5647C61.1303 75.5666 61.1363 75.5671 61.1421 75.5663H62.3571C62.3715 75.5651 62.386 75.567 62.3996 75.572C62.4132 75.5769 62.4255 75.5847 62.4358 75.5949C62.446 75.6051 62.454 75.6173 62.459 75.6309C62.4641 75.6444 62.4662 75.6589 62.4651 75.6733V76.0933C62.4663 76.1075 62.4644 76.1218 62.4596 76.1352C62.4547 76.1486 62.4471 76.1609 62.4372 76.1711C62.4272 76.1813 62.4152 76.1893 62.4019 76.1945C62.3886 76.1997 62.3744 76.202 62.3601 76.2013Z" fill="#03373E"/>
    <path d="M67.5524 75.9743C67.7281 76.1432 67.8658 76.3476 67.9564 76.5737C68.0471 76.7999 68.0887 77.0428 68.0784 77.2863V80.8983C68.0795 80.9127 68.0774 80.9271 68.0724 80.9407C68.0673 80.9542 68.0594 80.9665 68.0491 80.9766C68.0388 80.9868 68.0265 80.9946 68.0129 80.9996C67.9993 81.0045 67.9848 81.0065 67.9704 81.0053H67.4224C67.408 81.0065 67.3936 81.0045 67.38 80.9996C67.3664 80.9946 67.3541 80.9868 67.3438 80.9766C67.3335 80.9665 67.3256 80.9542 67.3205 80.9407C67.3155 80.9271 67.3134 80.9127 67.3144 80.8983V80.4573C67.3148 80.4511 67.3136 80.445 67.311 80.4394C67.3084 80.4338 67.3044 80.4289 67.2994 80.4253C67.2884 80.4183 67.2754 80.4253 67.2624 80.4363C67.0748 80.6564 66.8337 80.8248 66.5624 80.9253C66.2565 81.0395 65.932 81.0958 65.6054 81.0913C65.1481 81.1071 64.6983 80.971 64.3264 80.7043C64.1507 80.5641 64.0119 80.3832 63.922 80.1772C63.8321 79.9712 63.7938 79.7464 63.8104 79.5223C63.8007 79.2787 63.8487 79.0364 63.9506 78.815C64.0524 78.5935 64.2052 78.3994 64.3964 78.2483C64.8704 77.9117 65.4451 77.7469 66.0254 77.7813H67.2714C67.2773 77.7821 67.2832 77.7816 67.2888 77.7797C67.2944 77.7778 67.2995 77.7747 67.3037 77.7705C67.3079 77.7663 67.311 77.7613 67.3129 77.7557C67.3147 77.7501 67.3153 77.7441 67.3144 77.7383V77.3293C67.3316 77.0116 67.2219 76.7001 67.0094 76.4633C66.8807 76.3479 66.7298 76.26 66.5659 76.2048C66.4021 76.1497 66.2288 76.1284 66.0564 76.1423C65.7643 76.1301 65.4745 76.1993 65.2194 76.3423C65.1176 76.4013 65.0293 76.4812 64.9604 76.5766C64.8915 76.6721 64.8435 76.781 64.8194 76.8963C64.818 76.9115 64.8134 76.9263 64.8061 76.9397C64.7987 76.953 64.7887 76.9648 64.7766 76.9742C64.7645 76.9835 64.7506 76.9903 64.7358 76.9941C64.721 76.9979 64.7055 76.9987 64.6904 76.9963L64.1104 76.9213C64.0314 76.9083 63.9994 76.8783 64.0104 76.8353C64.0403 76.635 64.1136 76.4437 64.2252 76.2748C64.3368 76.1059 64.484 75.9633 64.6564 75.8573C65.0745 75.5936 65.5625 75.4626 66.0564 75.4813C66.6001 75.446 67.1363 75.6227 67.5524 75.9743ZM66.8524 80.1193C66.9967 80.0287 67.115 79.9024 67.196 79.7526C67.2769 79.6028 67.3177 79.4345 67.3144 79.2643V78.4253C67.3153 78.4194 67.3147 78.4135 67.3129 78.4079C67.311 78.4023 67.3079 78.3972 67.3037 78.393C67.2995 78.3888 67.2944 78.3857 67.2888 78.3838C67.2832 78.382 67.2773 78.3814 67.2714 78.3823H66.1424C65.7425 78.3632 65.3461 78.4645 65.0044 78.6733C64.8688 78.7585 64.7578 78.8778 64.6823 79.0191C64.6069 79.1605 64.5697 79.3191 64.5744 79.4793C64.5657 79.6162 64.591 79.7531 64.648 79.8779C64.7051 80.0026 64.7922 80.1113 64.9014 80.1943C65.1529 80.3651 65.4528 80.45 65.7564 80.4363C66.1457 80.446 66.5285 80.3352 66.8524 80.1193Z" fill="#03373E"/>
    <path d="M69.9054 80.8983V73.5883C69.9043 73.5739 69.9064 73.5596 69.9114 73.5461C69.9164 73.5327 69.9242 73.5204 69.9344 73.5103C69.9445 73.5001 69.9567 73.4923 69.9702 73.4873C69.9837 73.4823 69.998 73.4802 70.0124 73.4813H70.5614C70.5758 73.4801 70.5902 73.482 70.6038 73.487C70.6174 73.4919 70.6297 73.4997 70.64 73.5099C70.6503 73.5201 70.6582 73.5323 70.6633 73.5459C70.6683 73.5594 70.6704 73.5739 70.6694 73.5883V80.8983C70.6704 80.9127 70.6683 80.9271 70.6633 80.9407C70.6582 80.9542 70.6503 80.9665 70.64 80.9766C70.6297 80.9868 70.6174 80.9946 70.6038 80.9996C70.5902 81.0045 70.5758 81.0065 70.5614 81.0053H70.0124C69.9978 81.0075 69.9829 81.0062 69.9689 81.0016C69.955 80.997 69.9422 80.9892 69.9318 80.9788C69.9214 80.9684 69.9136 80.9557 69.909 80.9417C69.9044 80.9277 69.9032 80.9128 69.9054 80.8983Z" fill="#03373E"/>
    <path d="M79.9156 74.1423H75.9586C75.9528 74.1414 75.9468 74.142 75.9412 74.1438C75.9356 74.1457 75.9305 74.1488 75.9264 74.153C75.9222 74.1572 75.919 74.1623 75.9172 74.1679C75.9153 74.1735 75.9148 74.1794 75.9156 74.1853V76.8423C75.9148 76.8481 75.9153 76.8541 75.9172 76.8597C75.919 76.8653 75.9222 76.8703 75.9264 76.8745C75.9305 76.8787 75.9356 76.8818 75.9412 76.8837C75.9468 76.8856 75.9528 76.8861 75.9586 76.8853H78.7326C78.747 76.8841 78.7615 76.886 78.7751 76.891C78.7887 76.8959 78.801 76.9037 78.8113 76.9139C78.8215 76.9241 78.8295 76.9363 78.8345 76.9499C78.8396 76.9634 78.8417 76.9779 78.8406 76.9923V77.4453C78.8417 77.4597 78.8396 77.4741 78.8345 77.4877C78.8295 77.5012 78.8215 77.5135 78.8113 77.5236C78.801 77.5338 78.7887 77.5416 78.7751 77.5466C78.7615 77.5515 78.747 77.5535 78.7326 77.5523H75.9586C75.9528 77.5514 75.9468 77.552 75.9412 77.5538C75.9356 77.5557 75.9305 77.5588 75.9264 77.563C75.9222 77.5672 75.919 77.5723 75.9172 77.5779C75.9153 77.5835 75.9148 77.5894 75.9156 77.5953V80.2953C75.9148 80.3011 75.9153 80.3071 75.9172 80.3127C75.919 80.3183 75.9222 80.3233 75.9264 80.3275C75.9305 80.3317 75.9356 80.3348 75.9412 80.3367C75.9468 80.3386 75.9528 80.3391 75.9586 80.3383H79.9156C79.93 80.3372 79.9445 80.3393 79.958 80.3443C79.9716 80.3494 79.9838 80.3574 79.994 80.3676C80.0042 80.3779 80.012 80.3902 80.0169 80.4038C80.0219 80.4174 80.0238 80.4319 80.0226 80.4463V80.8973C80.0248 80.9118 80.0236 80.9267 80.019 80.9407C80.0144 80.9547 80.0065 80.9674 79.9961 80.9778C79.9857 80.9882 79.973 80.996 79.959 81.0006C79.945 81.0052 79.9302 81.0065 79.9156 81.0043H75.2606C75.2462 81.0055 75.2317 81.0035 75.2182 80.9986C75.2046 80.9936 75.1922 80.9858 75.182 80.9756C75.1717 80.9655 75.1638 80.9532 75.1587 80.9397C75.1536 80.9261 75.1516 80.9117 75.1526 80.8973V73.5873C75.1516 73.5729 75.1536 73.5584 75.1587 73.5449C75.1638 73.5313 75.1717 73.519 75.182 73.5089C75.1922 73.4987 75.2046 73.4909 75.2182 73.4859C75.2317 73.481 75.2462 73.4791 75.2606 73.4803H79.9156C79.9299 73.4792 79.9443 73.4813 79.9578 73.4863C79.9712 73.4913 79.9834 73.4991 79.9936 73.5093C80.0037 73.5194 80.0116 73.5317 80.0166 73.5451C80.0216 73.5586 80.0237 73.5729 80.0226 73.5873V74.0423C80.0227 74.056 80.0198 74.0696 80.0144 74.0822C80.0089 74.0948 80.0009 74.1062 79.9909 74.1156C79.9809 74.125 79.969 74.1322 79.956 74.1368C79.9431 74.1413 79.9293 74.1432 79.9156 74.1423Z" fill="#03373E"/>
    <path d="M81.1871 80.9623C81.1789 80.9484 81.1759 80.9321 81.1788 80.9162C81.1818 80.9004 81.1904 80.8862 81.2031 80.8763L83.0031 78.3183C83.0099 78.3088 83.0135 78.2974 83.0135 78.2858C83.0135 78.2741 83.0099 78.2628 83.0031 78.2533L81.2031 75.6953C81.1961 75.6882 81.1905 75.6797 81.1868 75.6705C81.183 75.6612 81.1811 75.6513 81.1811 75.6413C81.1811 75.5913 81.2151 75.5663 81.2811 75.5663H81.8611C81.8864 75.5646 81.9116 75.5696 81.9343 75.5808C81.9569 75.5921 81.9762 75.6091 81.9901 75.6303L83.3981 77.6623C83.4025 77.6661 83.4076 77.6691 83.413 77.671C83.4185 77.6729 83.4243 77.6736 83.4301 77.6733C83.4361 77.6737 83.4421 77.673 83.4478 77.6711C83.4534 77.6692 83.4586 77.6662 83.4631 77.6623L84.8631 75.6303C84.8771 75.6092 84.8964 75.5922 84.9191 75.581C84.9417 75.5697 84.9669 75.5647 84.9921 75.5663H85.6271C85.6436 75.5639 85.6604 75.5663 85.6756 75.573C85.6908 75.5797 85.7038 75.5905 85.7131 75.6043C85.7271 75.6283 85.7201 75.6603 85.6911 75.6953L83.8911 78.2533C83.8852 78.2745 83.8852 78.297 83.8911 78.3183L85.6911 80.8763C85.699 80.885 85.705 80.8953 85.7088 80.9065C85.7126 80.9177 85.7141 80.9295 85.7131 80.9413C85.7127 80.9496 85.7105 80.9577 85.7067 80.9651C85.7029 80.9725 85.6976 80.979 85.6911 80.9843C85.6824 80.9918 85.6722 80.9975 85.6612 81.0011C85.6502 81.0047 85.6387 81.0061 85.6271 81.0053H85.0351C85.0099 81.007 84.9847 81.0019 84.962 80.9907C84.9393 80.9794 84.9201 80.9624 84.9061 80.9413L83.5061 78.9103C83.5036 78.9036 83.4991 78.8979 83.4932 78.894C83.4873 78.89 83.4803 78.888 83.4731 78.8883C83.4662 78.8884 83.4595 78.8905 83.4538 78.8944C83.4481 78.8983 83.4437 78.9038 83.4411 78.9103L82.0201 80.9423C82.0062 80.9634 81.9869 80.9804 81.9643 80.9917C81.9416 81.0029 81.9164 81.008 81.8911 81.0063H81.2791C81.2613 81.0079 81.2433 81.0046 81.2271 80.9969C81.2109 80.9891 81.1971 80.9772 81.1871 80.9623Z" fill="#03373E"/>
    <path d="M87.6055 80.6893C87.2372 80.4209 86.9701 80.0362 86.8475 79.5973C86.7405 79.1614 86.6934 78.7129 86.7075 78.2643C86.6993 77.8231 86.7463 77.3827 86.8475 76.9533C86.9677 76.5207 87.2333 76.1428 87.5995 75.8833C87.9897 75.6109 88.4568 75.4707 88.9325 75.4833C89.4166 75.4727 89.8921 75.6124 90.2935 75.8833C90.6511 76.1152 90.9156 76.4658 91.0405 76.8733C91.0714 76.9785 91.0928 77.0862 91.1045 77.1953V77.2163C91.1045 77.2673 91.0725 77.2993 91.0045 77.3163L90.4665 77.3903H90.4445C90.3945 77.3903 90.3625 77.3593 90.3445 77.2903L90.3125 77.1283C90.2426 76.8482 90.0748 76.6024 89.8395 76.4353C89.5779 76.2399 89.2589 76.1369 88.9325 76.1423C88.6087 76.1303 88.2908 76.2307 88.0325 76.4263C87.7921 76.6159 87.6264 76.8844 87.5645 77.1843C87.491 77.5414 87.4575 77.9057 87.4645 78.2703C87.4553 78.6396 87.4889 79.0087 87.5645 79.3703C87.624 79.6741 87.7899 79.9468 88.0325 80.1393C88.2905 80.3356 88.6086 80.4363 88.9325 80.4243C89.257 80.4323 89.5755 80.3363 89.8415 80.1503C90.0834 79.9856 90.2542 79.7355 90.3195 79.4503V79.4073L90.3305 79.3643C90.3385 79.2923 90.3815 79.2643 90.4595 79.2783L90.9865 79.3643C91.0575 79.3783 91.0865 79.4173 91.0865 79.4823L91.0435 79.6973C90.9338 80.1161 90.6685 80.4774 90.3015 80.7073C89.8956 80.9711 89.4195 81.106 88.9355 81.0943C88.4601 81.1066 87.9934 80.9645 87.6055 80.6893Z" fill="#03373E"/>
    <path d="M96.8884 78.1243V78.4683C96.8896 78.4827 96.8877 78.4972 96.8827 78.5107C96.8778 78.5243 96.87 78.5367 96.8598 78.5469C96.8496 78.5572 96.8374 78.5651 96.8238 78.5702C96.8103 78.5753 96.7958 78.5773 96.7814 78.5763H93.3084C93.3026 78.5754 93.2966 78.576 93.291 78.5778C93.2854 78.5797 93.2803 78.5828 93.2762 78.587C93.272 78.5912 93.2688 78.5963 93.267 78.6019C93.2651 78.6075 93.2646 78.6134 93.2654 78.6193C93.2669 78.875 93.289 79.1301 93.3314 79.3823C93.3987 79.6897 93.5766 79.9616 93.8314 80.1463C94.1231 80.3418 94.4695 80.4396 94.8204 80.4253C95.1004 80.4331 95.3771 80.3639 95.6204 80.2253C95.8512 80.0868 96.0375 79.8852 96.1574 79.6443C96.2004 79.5803 96.2514 79.5663 96.3074 79.6013L96.7274 79.8483C96.7404 79.8551 96.752 79.8644 96.7613 79.8758C96.7706 79.8872 96.7774 79.9004 96.7814 79.9145C96.7855 79.9286 96.7866 79.9434 96.7847 79.958C96.7828 79.9726 96.7779 79.9866 96.7704 79.9993C96.5897 80.345 96.3088 80.628 95.9644 80.8113C95.5838 81.0129 95.1581 81.1145 94.7274 81.1063C94.2742 81.1151 93.8287 80.988 93.4484 80.7413C93.1011 80.4999 92.8411 80.1526 92.7074 79.7513C92.5586 79.2716 92.493 78.77 92.5134 78.2683C92.5134 77.9669 92.5187 77.7216 92.5294 77.5323C92.5376 77.3595 92.5647 77.1881 92.6104 77.0213C92.7189 76.5749 92.979 76.1801 93.3464 75.9043C93.7328 75.6183 94.2039 75.4704 94.6844 75.4843C95.2314 75.448 95.7712 75.6251 96.1904 75.9783C96.5645 76.355 96.7963 76.8498 96.8464 77.3783C96.877 77.6257 96.891 77.8749 96.8884 78.1243ZM93.8084 76.4243C93.5752 76.6093 93.4139 76.87 93.3524 77.1613C93.2974 77.4011 93.2682 77.6462 93.2654 77.8923C93.2648 77.8981 93.2655 77.9039 93.2674 77.9094C93.2693 77.9149 93.2725 77.9199 93.2766 77.9241C93.2807 77.9282 93.2857 77.9313 93.2912 77.9333C93.2967 77.9352 93.3026 77.9359 93.3084 77.9353H96.0934C96.0993 77.9361 96.1052 77.9356 96.1108 77.9337C96.1164 77.9318 96.1215 77.9287 96.1257 77.9245C96.1298 77.9204 96.133 77.9153 96.1348 77.9097C96.1367 77.9041 96.1372 77.8981 96.1364 77.8923C96.1316 77.6617 96.1099 77.4317 96.0714 77.2043C96.0051 76.9006 95.8363 76.6291 95.5934 76.4353C95.3332 76.2359 95.0121 76.1324 94.6844 76.1423C94.3693 76.1324 94.0602 76.2305 93.8084 76.4203V76.4243Z" fill="#03373E"/>
    <path d="M98.6389 80.8983V73.5883C98.6379 73.5739 98.64 73.5594 98.645 73.5459C98.6501 73.5323 98.658 73.5201 98.6683 73.5099C98.6786 73.4997 98.6909 73.4919 98.7045 73.487C98.7181 73.482 98.7325 73.4801 98.7469 73.4813H99.2959C99.3103 73.4802 99.3246 73.4823 99.3381 73.4873C99.3515 73.4923 99.3638 73.5001 99.3739 73.5103C99.3841 73.5204 99.3919 73.5327 99.3969 73.5461C99.4019 73.5596 99.404 73.5739 99.4029 73.5883V80.8983C99.4051 80.9128 99.4039 80.9277 99.3993 80.9417C99.3947 80.9557 99.3869 80.9684 99.3765 80.9788C99.3661 80.9892 99.3533 80.997 99.3394 81.0016C99.3254 81.0062 99.3105 81.0075 99.2959 81.0053H98.7469C98.7325 81.0065 98.7181 81.0045 98.7045 80.9996C98.6909 80.9946 98.6786 80.9868 98.6683 80.9766C98.658 80.9665 98.6501 80.9542 98.645 80.9407C98.64 80.9271 98.6379 80.9127 98.6389 80.8983Z" fill="#03373E"/>
    <path d="M101.348 80.8983V73.5883C101.347 73.5739 101.349 73.5594 101.354 73.5459C101.359 73.5323 101.367 73.5201 101.377 73.5099C101.388 73.4997 101.4 73.4919 101.413 73.487C101.427 73.482 101.442 73.4801 101.456 73.4813H102.005C102.019 73.4802 102.034 73.4823 102.047 73.4873C102.061 73.4923 102.073 73.5001 102.083 73.5103C102.093 73.5204 102.101 73.5327 102.106 73.5461C102.111 73.5596 102.113 73.5739 102.112 73.5883V80.8983C102.114 80.9128 102.113 80.9277 102.108 80.9417C102.104 80.9557 102.096 80.9684 102.085 80.9788C102.075 80.9892 102.062 80.997 102.048 81.0016C102.034 81.0062 102.019 81.0075 102.005 81.0053H101.456C101.442 81.0065 101.427 81.0045 101.413 80.9996C101.4 80.9946 101.388 80.9868 101.377 80.9766C101.367 80.9665 101.359 80.9542 101.354 80.9407C101.349 80.9271 101.347 80.9127 101.348 80.8983Z" fill="#03373E"/>
    <path d="M108.271 78.1243V78.4683C108.272 78.4827 108.27 78.4971 108.266 78.5107C108.261 78.5243 108.253 78.5366 108.243 78.5469C108.232 78.5572 108.22 78.5651 108.207 78.5702C108.193 78.5752 108.179 78.5773 108.164 78.5763H104.691C104.685 78.5754 104.679 78.576 104.674 78.5778C104.668 78.5797 104.663 78.5828 104.659 78.587C104.655 78.5912 104.652 78.5963 104.65 78.6019C104.648 78.6075 104.647 78.6134 104.648 78.6193C104.649 78.875 104.671 79.1302 104.714 79.3823C104.783 79.6902 104.963 79.9621 105.219 80.1463C105.511 80.342 105.857 80.4397 106.208 80.4253C106.486 80.4321 106.761 80.363 107.003 80.2253C107.234 80.0868 107.421 79.8852 107.541 79.6443C107.584 79.5803 107.634 79.5663 107.691 79.6013L108.11 79.8483C108.123 79.855 108.135 79.8644 108.144 79.8758C108.153 79.8872 108.16 79.9004 108.164 79.9145C108.168 79.9286 108.169 79.9434 108.167 79.958C108.166 79.9726 108.161 79.9866 108.153 79.9993C107.973 80.345 107.692 80.628 107.347 80.8113C106.967 81.0128 106.542 81.1143 106.111 81.1063C105.658 81.1155 105.212 80.9884 104.832 80.7413C104.485 80.4999 104.224 80.1527 104.09 79.7513C103.941 79.2716 103.876 78.77 103.896 78.2683C103.896 77.9683 103.902 77.7223 103.912 77.5323C103.921 77.3595 103.948 77.1882 103.993 77.0213C104.102 76.5751 104.362 76.1803 104.729 75.9043C105.116 75.6182 105.587 75.4703 106.068 75.4843C106.613 75.4497 107.15 75.6266 107.568 75.9783C107.942 76.3551 108.173 76.8499 108.223 77.3783C108.257 77.6255 108.273 77.8748 108.271 78.1243ZM105.191 76.4243C104.958 76.609 104.796 76.8698 104.735 77.1613C104.68 77.4011 104.651 77.6462 104.648 77.8923C104.648 77.8981 104.648 77.9039 104.65 77.9094C104.652 77.9149 104.655 77.9199 104.659 77.9241C104.664 77.9282 104.669 77.9313 104.674 77.9333C104.68 77.9352 104.685 77.9359 104.691 77.9353H107.471C107.477 77.9361 107.483 77.9356 107.489 77.9337C107.494 77.9318 107.499 77.9287 107.503 77.9245C107.508 77.9203 107.511 77.9153 107.513 77.9097C107.515 77.9041 107.515 77.8981 107.514 77.8923C107.509 77.6617 107.488 77.4318 107.45 77.2043C107.384 76.9006 107.214 76.629 106.971 76.4353C106.713 76.2378 106.396 76.1344 106.071 76.1423C105.755 76.1316 105.444 76.2297 105.191 76.4203V76.4243Z" fill="#03373E"/>
    <path d="M113.653 75.9953C113.826 76.1746 113.96 76.3874 114.048 76.6205C114.136 76.8537 114.175 77.1024 114.163 77.3513V80.8983C114.165 80.9129 114.164 80.9279 114.159 80.942C114.154 80.956 114.146 80.9688 114.136 80.9793C114.125 80.9897 114.113 80.9975 114.098 81.002C114.084 81.0065 114.069 81.0076 114.055 81.0053H113.508C113.493 81.0065 113.479 81.0045 113.465 80.9996C113.452 80.9946 113.439 80.9868 113.429 80.9766C113.419 80.9665 113.411 80.9542 113.406 80.9407C113.401 80.9271 113.399 80.9127 113.4 80.8983V77.4983C113.407 77.3213 113.378 77.1447 113.316 76.9787C113.255 76.8128 113.161 76.6607 113.04 76.5313C112.92 76.4067 112.775 76.3089 112.615 76.2441C112.455 76.1793 112.282 76.149 112.11 76.1553C111.933 76.1453 111.757 76.1726 111.592 76.2355C111.427 76.2984 111.278 76.3954 111.153 76.5202C111.028 76.6451 110.931 76.7948 110.868 76.9598C110.805 77.1247 110.778 77.301 110.788 77.4773V80.8953C110.789 80.9097 110.787 80.9241 110.782 80.9377C110.777 80.9512 110.769 80.9635 110.758 80.9736C110.748 80.9838 110.736 80.9916 110.722 80.9966C110.709 81.0015 110.694 81.0035 110.68 81.0023H110.132C110.117 81.0035 110.103 81.0015 110.089 80.9966C110.076 80.9916 110.063 80.9838 110.053 80.9736C110.043 80.9635 110.035 80.9512 110.03 80.9377C110.025 80.9241 110.023 80.9097 110.024 80.8953V75.6733C110.023 75.6589 110.025 75.6444 110.03 75.6309C110.035 75.6173 110.043 75.6051 110.053 75.5949C110.063 75.5847 110.076 75.5769 110.089 75.5719C110.103 75.567 110.117 75.5651 110.132 75.5663H110.68C110.694 75.5651 110.709 75.567 110.722 75.5719C110.736 75.5769 110.748 75.5847 110.758 75.5949C110.769 75.6051 110.777 75.6173 110.782 75.6309C110.787 75.6444 110.789 75.6589 110.788 75.6733V76.1363C110.788 76.1425 110.789 76.1487 110.792 76.1543C110.794 76.1598 110.799 76.1647 110.804 76.1683C110.815 76.1753 110.823 76.1683 110.831 76.1583C110.997 75.9338 111.217 75.755 111.471 75.6384C111.724 75.5218 112.003 75.4712 112.282 75.4913C112.532 75.4791 112.783 75.5174 113.018 75.604C113.254 75.6906 113.47 75.8237 113.653 75.9953Z" fill="#03373E"/>
    <path d="M116.705 80.6893C116.337 80.4209 116.07 80.0362 115.947 79.5973C115.84 79.1614 115.793 78.7129 115.807 78.2643C115.799 77.8231 115.846 77.3826 115.947 76.9533C116.068 76.5209 116.333 76.1431 116.699 75.8833C117.09 75.6106 117.557 75.4704 118.033 75.4833C118.517 75.4729 118.992 75.6126 119.392 75.8833C119.75 76.1149 120.015 76.4656 120.139 76.8733C120.171 76.9782 120.193 77.0861 120.204 77.1953V77.2163C120.204 77.2673 120.172 77.2993 120.104 77.3163L119.567 77.3903H119.546C119.495 77.3903 119.463 77.3593 119.446 77.2903L119.415 77.1283C119.345 76.8483 119.177 76.6026 118.941 76.4353C118.677 76.2419 118.356 76.142 118.028 76.1513C117.705 76.1394 117.387 76.2397 117.128 76.4353C116.888 76.6251 116.723 76.8935 116.661 77.1933C116.587 77.5503 116.553 77.9146 116.561 78.2793C116.551 78.6486 116.585 79.0178 116.661 79.3793C116.72 79.683 116.886 79.9557 117.128 80.1483C117.386 80.3446 117.704 80.4453 118.028 80.4333C118.352 80.441 118.671 80.345 118.936 80.1593C119.178 79.9944 119.349 79.7445 119.415 79.4593V79.4163L119.424 79.3733C119.432 79.3013 119.475 79.2733 119.553 79.2873L120.081 79.3733C120.152 79.3873 120.181 79.4263 120.181 79.4913L120.138 79.7063C120.029 80.125 119.764 80.4862 119.397 80.7163C118.992 80.9799 118.516 81.1148 118.032 81.1033C117.557 81.1123 117.091 80.9671 116.705 80.6893Z" fill="#03373E"/>
    <path d="M125.987 78.1243V78.4683C125.988 78.4827 125.986 78.4971 125.981 78.5107C125.976 78.5243 125.969 78.5366 125.958 78.5469C125.948 78.5572 125.936 78.5651 125.922 78.5702C125.909 78.5752 125.894 78.5773 125.88 78.5763H122.408C122.402 78.5754 122.396 78.576 122.391 78.5778C122.385 78.5797 122.38 78.5828 122.376 78.587C122.372 78.5912 122.369 78.5963 122.367 78.6019C122.365 78.6075 122.364 78.6134 122.365 78.6193C122.366 78.8749 122.387 79.1301 122.429 79.3823C122.498 79.689 122.676 79.9604 122.929 80.1463C123.221 80.3419 123.568 80.4396 123.919 80.4253C124.197 80.4321 124.472 80.363 124.714 80.2253C124.945 80.0868 125.132 79.8852 125.252 79.6443C125.295 79.5803 125.344 79.5663 125.402 79.6013L125.821 79.8483C125.834 79.8549 125.846 79.8642 125.855 79.8756C125.865 79.887 125.872 79.9002 125.876 79.9144C125.88 79.9286 125.881 79.9434 125.879 79.958C125.877 79.9726 125.872 79.9867 125.864 79.9993C125.684 80.3455 125.402 80.6286 125.057 80.8113C124.677 81.0131 124.252 81.1147 123.822 81.1063C123.369 81.1155 122.923 80.9884 122.543 80.7413C122.195 80.5 121.935 80.1528 121.8 79.7513C121.652 79.2714 121.587 78.77 121.607 78.2683C121.607 77.9683 121.612 77.7223 121.624 77.5323C121.631 77.3594 121.658 77.1879 121.704 77.0213C121.813 76.5751 122.073 76.1803 122.44 75.9043C122.827 75.6182 123.298 75.4703 123.779 75.4843C124.324 75.4499 124.861 75.6268 125.279 75.9783C125.652 76.3554 125.884 76.85 125.934 77.3783C125.968 77.6255 125.986 77.8747 125.987 78.1243ZM122.908 76.4243C122.674 76.6086 122.512 76.8696 122.451 77.1613C122.397 77.4012 122.368 77.6462 122.365 77.8923C122.364 77.8981 122.365 77.9041 122.367 77.9097C122.369 77.9153 122.372 77.9203 122.376 77.9245C122.38 77.9287 122.385 77.9318 122.391 77.9337C122.396 77.9356 122.402 77.9361 122.408 77.9353H125.192C125.198 77.9359 125.204 77.9352 125.209 77.9333C125.215 77.9313 125.22 77.9282 125.224 77.9241C125.228 77.9199 125.231 77.9149 125.233 77.9094C125.235 77.9039 125.236 77.8981 125.235 77.8923C125.229 77.6617 125.208 77.4319 125.171 77.2043C125.104 76.9009 124.935 76.6296 124.692 76.4353C124.431 76.2392 124.11 76.139 123.784 76.1513C123.47 76.1382 123.161 76.2331 122.908 76.4203V76.4243Z" fill="#03373E"/>
    <path d="M41.3538 92.6493V85.3423C41.3527 85.3279 41.3548 85.3134 41.3599 85.2999C41.3649 85.2863 41.3729 85.2741 41.3831 85.2639C41.3934 85.2537 41.4057 85.2459 41.4193 85.241C41.4329 85.236 41.4474 85.2341 41.4618 85.2353H43.9988C44.6132 85.2031 45.2173 85.4025 45.6918 85.7943C45.9019 85.9848 46.0672 86.2194 46.1759 86.4813C46.2847 86.7433 46.3341 87.026 46.3208 87.3093V90.6823C46.3342 90.9657 46.2848 91.2486 46.1761 91.5107C46.0673 91.7728 45.9019 92.0076 45.6918 92.1983C45.2174 92.5901 44.6131 92.7892 43.9988 92.7563H41.4618C41.4474 92.7575 41.4329 92.7555 41.4193 92.7506C41.4057 92.7456 41.3934 92.7378 41.3831 92.7276C41.3729 92.7175 41.3649 92.7052 41.3599 92.6917C41.3548 92.6781 41.3527 92.6637 41.3538 92.6493ZM42.1608 92.0903H44.0318C44.235 92.1004 44.4382 92.0695 44.6293 91.9994C44.8203 91.9293 44.9953 91.8214 45.1438 91.6823C45.2847 91.5373 45.3943 91.3647 45.4655 91.1754C45.5367 90.9862 45.5682 90.7842 45.5578 90.5823V87.4143C45.5685 87.2116 45.5377 87.009 45.4674 86.8186C45.3971 86.6283 45.2887 86.4543 45.1488 86.3073C45 86.167 44.8243 86.0584 44.6323 85.9881C44.4403 85.9178 44.236 85.8872 44.0318 85.8983H42.1608C42.155 85.8976 42.1491 85.8983 42.1436 85.9002C42.1381 85.9022 42.1331 85.9053 42.129 85.9095C42.1249 85.9136 42.1217 85.9186 42.1198 85.9241C42.1178 85.9296 42.1172 85.9355 42.1178 85.9413V92.0423C42.116 92.0485 42.1158 92.055 42.1172 92.0613C42.1187 92.0676 42.1217 92.0734 42.126 92.0782C42.1303 92.083 42.1357 92.0866 42.1418 92.0887C42.1479 92.0908 42.1544 92.0914 42.1608 92.0903Z" fill="#03373E"/>
    <path d="M52.2977 89.8763V90.2193C52.2989 90.2338 52.2969 90.2483 52.2919 90.262C52.2869 90.2756 52.279 90.288 52.2687 90.2983C52.2584 90.3086 52.246 90.3165 52.2324 90.3215C52.2187 90.3265 52.2042 90.3285 52.1897 90.3273H48.7187C48.7128 90.3264 48.7069 90.327 48.7013 90.3288C48.6957 90.3307 48.6906 90.3338 48.6864 90.338C48.6822 90.3422 48.6791 90.3473 48.6772 90.3529C48.6754 90.3585 48.6748 90.3644 48.6757 90.3703C48.6769 90.6259 48.6983 90.881 48.7397 91.1333C48.8072 91.4406 48.9851 91.7124 49.2397 91.8973C49.5312 92.0932 49.8777 92.1909 50.2287 92.1763C50.5086 92.184 50.7853 92.1148 51.0287 91.9763C51.2596 91.838 51.446 91.6364 51.5657 91.3953C51.6087 91.3313 51.6587 91.3173 51.7167 91.3523L52.1367 91.5993C52.1497 91.6062 52.1611 91.6158 52.1703 91.6273C52.1795 91.6388 52.1863 91.6521 52.1902 91.6663C52.1941 91.6805 52.1951 91.6953 52.1931 91.71C52.1912 91.7246 52.1862 91.7386 52.1787 91.7513C51.9977 92.0965 51.7168 92.3791 51.3727 92.5623C50.9923 92.7638 50.567 92.8653 50.1367 92.8573C49.6831 92.8664 49.2372 92.7392 48.8567 92.4923C48.5091 92.2513 48.2488 91.9044 48.1147 91.5033C47.9664 91.0232 47.9011 90.5213 47.9217 90.0193C47.9217 89.7193 47.9277 89.4733 47.9377 89.2833C47.9456 89.1105 47.9724 88.9392 48.0177 88.7723C48.1269 88.3257 48.3877 87.9309 48.7557 87.6553C49.142 87.3693 49.6132 87.2214 50.0937 87.2353C50.6387 87.2003 51.1761 87.3773 51.5937 87.7293C51.9677 88.106 52.1996 88.6008 52.2497 89.1293C52.2829 89.3769 52.299 89.6265 52.2977 89.8763ZM49.2187 88.1713C48.9842 88.3554 48.8223 88.6164 48.7617 88.9083C48.7071 89.1482 48.6783 89.3932 48.6757 89.6393C48.6748 89.6451 48.6754 89.6511 48.6772 89.6567C48.6791 89.6623 48.6822 89.6673 48.6864 89.6715C48.6906 89.6757 48.6957 89.6788 48.7013 89.6807C48.7069 89.6826 48.7128 89.6831 48.7187 89.6823H51.5027C51.5085 89.6831 51.5145 89.6826 51.5201 89.6807C51.5257 89.6788 51.5307 89.6757 51.5349 89.6715C51.5391 89.6673 51.5422 89.6623 51.5441 89.6567C51.546 89.6511 51.5465 89.6451 51.5457 89.6393C51.5403 89.4087 51.5186 89.1788 51.4807 88.9513C51.4137 88.6479 51.245 88.3766 51.0027 88.1823C50.7415 87.9862 50.421 87.886 50.0947 87.8983C49.78 87.8864 49.4708 87.9827 49.2187 88.1713Z" fill="#03373E"/>
    <path d="M54.0504 92.6493V85.3423C54.0494 85.3279 54.0514 85.3136 54.0564 85.3001C54.0614 85.2867 54.0693 85.2744 54.0794 85.2643C54.0896 85.2541 54.1018 85.2463 54.1153 85.2413C54.1287 85.2363 54.1431 85.2342 54.1574 85.2353H54.7054C54.72 85.2331 54.7348 85.2343 54.7488 85.2389C54.7628 85.2435 54.7755 85.2513 54.7859 85.2617C54.7963 85.2721 54.8042 85.2849 54.8088 85.2988C54.8134 85.3128 54.8146 85.3277 54.8124 85.3423V92.6523C54.8146 92.6668 54.8134 92.6817 54.8088 92.6957C54.8042 92.7097 54.7963 92.7224 54.7859 92.7328C54.7755 92.7432 54.7628 92.751 54.7488 92.7556C54.7348 92.7602 54.72 92.7615 54.7054 92.7593H54.1574C54.1426 92.7616 54.1274 92.7603 54.1131 92.7556C54.0988 92.7508 54.0859 92.7427 54.0754 92.7319C54.065 92.7212 54.0572 92.708 54.0529 92.6936C54.0485 92.6793 54.0477 92.664 54.0504 92.6493Z" fill="#03373E"/>
    <path d="M56.8449 86.1563C56.7338 86.0397 56.6719 85.8848 56.6719 85.7238C56.6719 85.5627 56.7338 85.4079 56.8449 85.2913C56.9625 85.1845 57.1156 85.1254 57.2744 85.1254C57.4332 85.1254 57.5863 85.1845 57.7039 85.2913C57.8113 85.4066 57.8699 85.5591 57.8674 85.7167C57.8648 85.8744 57.8013 86.0249 57.6903 86.1367C57.5792 86.2486 57.4291 86.3131 57.2715 86.3167C57.1139 86.3204 56.9611 86.2629 56.8449 86.1563ZM56.8709 92.6423V87.4143C56.8698 87.4005 56.8716 87.3866 56.8761 87.3735C56.8806 87.3605 56.8878 87.3485 56.8972 87.3383C56.9066 87.3282 56.918 87.3201 56.9307 87.3146C56.9434 87.309 56.9571 87.3062 56.9709 87.3063H57.5189C57.5334 87.3051 57.548 87.307 57.5616 87.312C57.5753 87.317 57.5877 87.3249 57.598 87.3352C57.6083 87.3455 57.6162 87.3579 57.6212 87.3715C57.6262 87.3852 57.6281 87.3998 57.6269 87.4143V92.6423C57.6281 92.6568 57.6262 92.6713 57.6212 92.685C57.6162 92.6986 57.6083 92.711 57.598 92.7213C57.5877 92.7316 57.5753 92.7395 57.5616 92.7445C57.548 92.7495 57.5334 92.7515 57.5189 92.7503H56.9709C56.9568 92.7513 56.9426 92.7492 56.9295 92.744C56.9163 92.7389 56.9045 92.7308 56.8949 92.7204C56.8853 92.71 56.8781 92.6976 56.874 92.6841C56.8698 92.6705 56.8688 92.6563 56.8709 92.6423Z" fill="#03373E"/>
    <path d="M60.9947 92.6703L59.2307 87.4353L59.2207 87.3923C59.2207 87.3423 59.254 87.3173 59.3207 87.3173H59.9337C59.9617 87.315 59.9897 87.3222 60.0131 87.3378C60.0366 87.3535 60.054 87.3765 60.0627 87.4033L61.4067 91.6173C61.4093 91.6236 61.4138 91.6289 61.4195 91.6327C61.4252 91.6364 61.4319 91.6384 61.4387 91.6383C61.4457 91.6384 61.4525 91.6365 61.4584 91.6328C61.4643 91.6291 61.4689 91.6236 61.4717 91.6173L62.8147 87.4033C62.8237 87.3767 62.8412 87.3538 62.8646 87.3383C62.8879 87.3227 62.9157 87.3153 62.9437 87.3173L63.5577 87.3283C63.6357 87.3283 63.6647 87.3683 63.6427 87.4463L61.8717 92.6703C61.863 92.697 61.8456 92.7201 61.8221 92.7357C61.7987 92.7513 61.7707 92.7585 61.7427 92.7563H61.1197C61.0923 92.7578 61.0651 92.7502 61.0425 92.7346C61.0199 92.719 61.0031 92.6964 60.9947 92.6703Z" fill="#03373E"/>
    <path d="M69.1101 89.8763V90.2193C69.1113 90.2337 69.1093 90.2482 69.1044 90.2617C69.0995 90.2753 69.0916 90.2877 69.0815 90.2979C69.0713 90.3082 69.059 90.3161 69.0455 90.3212C69.032 90.3263 69.0175 90.3283 69.0031 90.3273H65.5301C65.5242 90.3264 65.5183 90.327 65.5127 90.3288C65.5071 90.3307 65.502 90.3338 65.4978 90.338C65.4937 90.3422 65.4905 90.3473 65.4886 90.3529C65.4868 90.3585 65.4862 90.3644 65.4871 90.3703C65.4884 90.6259 65.5102 90.8811 65.5521 91.1333C65.6199 91.4404 65.7977 91.7122 66.0521 91.8973C66.344 92.0931 66.6908 92.1908 67.0421 92.1763C67.322 92.1839 67.5987 92.1148 67.8421 91.9763C68.0728 91.8377 68.2591 91.6361 68.3791 91.3953C68.4221 91.3313 68.4721 91.3173 68.5291 91.3523L68.9491 91.5993C68.962 91.6063 68.9735 91.6158 68.9827 91.6273C68.9919 91.6388 68.9987 91.652 69.0028 91.6662C69.0068 91.6803 69.0079 91.6952 69.006 91.7098C69.0042 91.7244 68.9995 91.7385 68.9921 91.7513C68.8107 92.0965 68.5294 92.3792 68.1851 92.5623C67.8048 92.764 67.3794 92.8656 66.9491 92.8573C66.4958 92.8665 66.0502 92.7394 65.6701 92.4923C65.3228 92.251 65.0626 91.9042 64.9281 91.5033C64.7794 91.0233 64.7138 90.5214 64.7341 90.0193C64.7341 89.7179 64.7397 89.4726 64.7511 89.2833C64.7593 89.1105 64.7865 88.9391 64.8321 88.7723C64.9406 88.3259 65.2007 87.9311 65.5681 87.6553C65.9546 87.3696 66.4257 87.2217 66.9061 87.2353C67.4527 87.1992 67.9921 87.3762 68.4111 87.7293C68.7852 88.106 69.017 88.6008 69.0671 89.1293C69.0982 89.377 69.1125 89.6266 69.1101 89.8763ZM66.0301 88.1713C65.7959 88.3556 65.6341 88.6166 65.5731 88.9083C65.519 89.1483 65.4902 89.3933 65.4871 89.6393C65.4862 89.6451 65.4868 89.6511 65.4886 89.6567C65.4905 89.6623 65.4937 89.6673 65.4978 89.6715C65.502 89.6757 65.5071 89.6788 65.5127 89.6807C65.5183 89.6826 65.5242 89.6831 65.5301 89.6823H68.3141C68.32 89.6833 68.326 89.683 68.3317 89.6812C68.3374 89.6794 68.3426 89.6762 68.3468 89.672C68.3511 89.6678 68.3542 89.6626 68.356 89.6569C68.3578 89.6512 68.3581 89.6452 68.3571 89.6393C68.353 89.4087 68.3316 89.1787 68.2931 88.9513C68.2258 88.6478 68.0568 88.3765 67.8141 88.1823C67.5529 87.9863 67.2323 87.886 66.9061 87.8983C66.5915 87.8865 66.2823 87.9829 66.0301 88.1713Z" fill="#03373E"/>
    <path d="M73.6715 87.4033C73.6979 87.4142 73.7192 87.4347 73.7311 87.4607C73.743 87.4867 73.7446 87.5162 73.7356 87.5433L73.6176 88.0703C73.6155 88.0855 73.6096 88.1 73.6005 88.1123C73.5913 88.1247 73.5792 88.1345 73.5652 88.1409C73.5512 88.1473 73.5359 88.15 73.5205 88.1489C73.5052 88.1477 73.4904 88.1427 73.4775 88.1343C73.3437 88.0825 73.2011 88.057 73.0576 88.0593L72.9196 88.0703C72.7453 88.0727 72.5734 88.1107 72.4144 88.1819C72.2553 88.2531 72.1125 88.356 71.9946 88.4843C71.7471 88.7549 71.6157 89.1118 71.6286 89.4783V92.6493C71.6308 92.6639 71.6295 92.6789 71.6249 92.693C71.6202 92.707 71.6123 92.7198 71.6018 92.7303C71.5913 92.7407 71.5784 92.7485 71.5643 92.753C71.5502 92.7575 71.5352 92.7586 71.5206 92.7563H70.9716C70.9572 92.7575 70.9427 92.7555 70.9291 92.7506C70.9155 92.7456 70.9032 92.7378 70.8929 92.7276C70.8826 92.7175 70.8747 92.7052 70.8696 92.6917C70.8646 92.6781 70.8625 92.6637 70.8636 92.6493V87.4243C70.8625 87.4099 70.8646 87.3954 70.8696 87.3819C70.8747 87.3683 70.8826 87.3561 70.8929 87.3459C70.9032 87.3357 70.9155 87.3279 70.9291 87.323C70.9427 87.318 70.9572 87.3161 70.9716 87.3173H71.5185C71.5329 87.3161 71.5474 87.318 71.561 87.323C71.5746 87.3279 71.5869 87.3357 71.5972 87.3459C71.6075 87.3561 71.6154 87.3683 71.6205 87.3819C71.6255 87.3954 71.6276 87.4099 71.6266 87.4243V88.0813C71.6266 88.1023 71.6326 88.1153 71.6426 88.1183C71.6526 88.1213 71.6626 88.1183 71.6696 88.1023C71.8065 87.8511 72.0046 87.6385 72.2456 87.4843C72.4884 87.3337 72.7698 87.2569 73.0556 87.2633C73.2694 87.2573 73.4813 87.3055 73.6715 87.4033Z" fill="#03373E"/>
    <path d="M79.1726 89.8763V90.2193C79.1738 90.2338 79.1719 90.2483 79.1669 90.262C79.1619 90.2756 79.154 90.288 79.1437 90.2983C79.1334 90.3086 79.121 90.3165 79.1074 90.3215C79.0937 90.3265 79.0791 90.3285 79.0646 90.3273H75.5936C75.5878 90.3264 75.5818 90.327 75.5762 90.3288C75.5706 90.3307 75.5655 90.3338 75.5614 90.338C75.5572 90.3422 75.5541 90.3473 75.5522 90.3529C75.5503 90.3585 75.5498 90.3644 75.5506 90.3703C75.5514 90.6259 75.5732 90.8811 75.6156 91.1333C75.6841 91.4415 75.8639 91.7135 76.1206 91.8973C76.4122 92.0932 76.7587 92.1909 77.1096 92.1763C77.3879 92.1833 77.6628 92.1141 77.9046 91.9763C78.1361 91.8384 78.3229 91.6367 78.4426 91.3953C78.4856 91.3313 78.5356 91.3173 78.5936 91.3523L79.0126 91.5993C79.0257 91.6061 79.0373 91.6156 79.0465 91.6271C79.0558 91.6386 79.0627 91.6519 79.0666 91.6662C79.0705 91.6804 79.0715 91.6953 79.0694 91.71C79.0674 91.7246 79.0623 91.7387 79.0546 91.7513C78.874 92.0964 78.5934 92.3791 78.2496 92.5623C77.8692 92.7636 77.4439 92.8651 77.0136 92.8573C76.56 92.8665 76.1141 92.7393 75.7336 92.4923C75.386 92.2513 75.1257 91.9044 74.9916 91.5033C74.8433 91.0232 74.7781 90.5213 74.7986 90.0193C74.7986 89.7193 74.8046 89.4733 74.8136 89.2833C74.8224 89.1105 74.8495 88.9392 74.8946 88.7723C75.0039 88.326 75.2643 87.9313 75.6316 87.6553C76.0184 87.3676 76.4907 87.2183 76.9726 87.2313C77.5176 87.1964 78.055 87.3734 78.4726 87.7253C78.8467 88.102 79.0785 88.5968 79.1286 89.1253C79.1607 89.3743 79.1754 89.6252 79.1726 89.8763ZM76.0926 88.1713C75.8588 88.3557 75.6973 88.6167 75.6366 88.9083C75.5811 89.148 75.5519 89.3932 75.5496 89.6393C75.5488 89.6451 75.5493 89.6511 75.5512 89.6567C75.5531 89.6623 75.5562 89.6673 75.5604 89.6715C75.5645 89.6757 75.5696 89.6788 75.5752 89.6807C75.5808 89.6826 75.5868 89.6831 75.5926 89.6823H78.3776C78.3835 89.6831 78.3894 89.6826 78.395 89.6807C78.4006 89.6788 78.4057 89.6757 78.4099 89.6715C78.4141 89.6673 78.4172 89.6623 78.4191 89.6567C78.4209 89.6511 78.4215 89.6451 78.4206 89.6393C78.4153 89.4087 78.3936 89.1788 78.3556 88.9513C78.2887 88.6479 78.12 88.3766 77.8776 88.1823C77.6173 87.9869 77.2979 87.8866 76.9726 87.8983C76.657 87.8861 76.3458 87.9824 76.0926 88.1713Z" fill="#03373E"/>
    <path d="M84.4069 85.2323H84.9549C84.9694 85.2301 84.9843 85.2313 84.9983 85.2359C85.0123 85.2405 85.025 85.2483 85.0354 85.2587C85.0458 85.2692 85.0536 85.2819 85.0582 85.2958C85.0628 85.3098 85.0641 85.3247 85.0619 85.3393V92.6493C85.0641 92.6638 85.0628 92.6787 85.0582 92.6927C85.0536 92.7067 85.0458 92.7194 85.0354 92.7298C85.025 92.7402 85.0123 92.748 84.9983 92.7526C84.9843 92.7572 84.9694 92.7585 84.9549 92.7563H84.4069C84.3923 92.7585 84.3775 92.7572 84.3635 92.7526C84.3495 92.748 84.3368 92.7402 84.3264 92.7298C84.3159 92.7194 84.3081 92.7067 84.3035 92.6927C84.2989 92.6787 84.2977 92.6638 84.2999 92.6493V92.1983C84.3009 92.1923 84.2997 92.1862 84.2966 92.1811C84.2935 92.1759 84.2886 92.1721 84.2829 92.1703C84.2758 92.1696 84.2686 92.1709 84.2621 92.1738C84.2556 92.1768 84.25 92.1814 84.2459 92.1873C84.0913 92.3922 83.8905 92.5576 83.6599 92.6703C83.4172 92.7877 83.1504 92.8466 82.8809 92.8423C82.4284 92.8574 81.9837 92.7216 81.6169 92.4563C81.2741 92.1914 81.028 91.821 80.9169 91.4023C80.8002 90.9571 80.749 90.4972 80.7649 90.0373C80.7491 89.5892 80.7925 89.141 80.8939 88.7043C81.0045 88.2756 81.2542 87.8958 81.6039 87.6243C81.9746 87.3538 82.4253 87.2155 82.8839 87.2313C83.1507 87.2289 83.4148 87.286 83.6569 87.3983C83.8904 87.5071 84.0937 87.6716 84.2489 87.8773C84.2629 87.8903 84.2759 87.8963 84.2859 87.8923C84.2913 87.8906 84.296 87.8871 84.2992 87.8824C84.3023 87.8776 84.3036 87.8719 84.3029 87.8663V85.3423C84.3014 85.328 84.3031 85.3135 84.3077 85.2999C84.3123 85.2863 84.3198 85.2739 84.3297 85.2635C84.3396 85.253 84.3516 85.2448 84.3649 85.2394C84.3782 85.2341 84.3925 85.2316 84.4069 85.2323ZM84.2459 90.8423C84.2785 90.5749 84.2929 90.3056 84.2889 90.0363C84.2927 89.7649 84.2784 89.4937 84.2459 89.2243C84.222 89.044 84.1711 88.8684 84.0949 88.7033C84.0164 88.4694 83.8685 88.265 83.6709 88.1173C83.468 87.9692 83.222 87.8919 82.9709 87.8973C82.7069 87.89 82.4472 87.9651 82.2279 88.1123C82.0234 88.2519 81.8661 88.4503 81.7769 88.6813C81.6879 88.8481 81.6248 89.0275 81.5899 89.2133C81.544 89.4851 81.5239 89.7606 81.5299 90.0363C81.5259 90.3003 81.5403 90.5642 81.5729 90.8263C81.5972 91.0029 81.6481 91.1748 81.7239 91.3363C81.8034 91.5862 81.9643 91.8023 82.1809 91.9503C82.4111 92.104 82.6832 92.1826 82.9599 92.1753C83.2184 92.184 83.4723 92.1046 83.6799 91.9503C83.8762 91.7941 84.0251 91.5864 84.1099 91.3503C84.1787 91.1881 84.2245 91.0171 84.2459 90.8423Z" fill="#03373E"/>
    <path d="M88.2667 91.5313H87.0527V92.7453H88.2667V91.5313Z" fill="#03373E"/>
    <path d="M48.7272 54.0203H50.4482C50.507 54.0203 50.5635 54.0437 50.6051 54.0853C50.6468 54.1269 50.6702 54.1834 50.6702 54.2423V66.7483C50.6706 66.7775 50.665 66.8065 50.6538 66.8335C50.6427 66.8605 50.6261 66.8849 50.6052 66.9053C50.5849 66.9263 50.5605 66.9429 50.5334 66.9539C50.5064 66.9649 50.4773 66.9702 50.4482 66.9693H48.7482C48.719 66.9702 48.6899 66.9649 48.6629 66.9539C48.6358 66.9429 48.6114 66.9263 48.5912 66.9053C48.5702 66.8849 48.5537 66.8605 48.5425 66.8335C48.5313 66.8065 48.5258 66.7775 48.5262 66.7483V57.9793C48.5262 57.9293 48.5142 57.9023 48.4892 57.8963C48.4642 57.8903 48.4392 57.9053 48.4152 57.9423L46.4542 61.1793C46.4308 61.2271 46.3937 61.2668 46.3475 61.2932C46.3013 61.3196 46.2482 61.3314 46.1952 61.3273H45.8442C45.7911 61.3314 45.7381 61.3196 45.6919 61.2932C45.6457 61.2668 45.6085 61.2271 45.5852 61.1793L43.6242 57.9603C43.5992 57.9233 43.5742 57.9083 43.5502 57.9143C43.5262 57.9203 43.5132 57.9483 43.5132 57.9973V66.7483C43.5136 66.7775 43.508 66.8065 43.4968 66.8335C43.4857 66.8605 43.4691 66.8849 43.4482 66.9053C43.4278 66.9262 43.4034 66.9426 43.3763 66.9536C43.3493 66.9647 43.3203 66.97 43.2912 66.9693H41.5912C41.562 66.9702 41.5329 66.9649 41.5059 66.9539C41.4788 66.9429 41.4544 66.9263 41.4342 66.9053C41.4132 66.8849 41.3967 66.8605 41.3855 66.8335C41.3743 66.8065 41.3688 66.7775 41.3692 66.7483V54.2423C41.3692 54.1834 41.3925 54.1269 41.4342 54.0853C41.4758 54.0437 41.5323 54.0203 41.5912 54.0203H43.2912C43.3442 54.0161 43.3973 54.028 43.4435 54.0544C43.4897 54.0808 43.5268 54.1204 43.5502 54.1683L45.9732 58.0343C46.0098 58.1083 46.0468 58.1083 46.0842 58.0343L48.4732 54.1683C48.4958 54.121 48.5322 54.0817 48.5774 54.0553C48.6227 54.0289 48.6749 54.0167 48.7272 54.0203Z" fill="#03373E"/>
    <path d="M62.2334 55.8053C62.213 55.8262 62.1886 55.8428 62.1616 55.854C62.1346 55.8652 62.1056 55.8707 62.0764 55.8703H56.9334C56.9209 55.8684 56.9081 55.8695 56.8961 55.8735C56.8841 55.8774 56.8732 55.8842 56.8642 55.8931C56.8553 55.9021 56.8486 55.913 56.8446 55.925C56.8406 55.937 56.8395 55.9498 56.8414 55.9623V59.4423C56.8396 59.4548 56.8407 59.4676 56.8446 59.4796C56.8486 59.4917 56.8553 59.5026 56.8642 59.5117C56.8731 59.5207 56.884 59.5275 56.896 59.5316C56.908 59.5357 56.9208 59.5369 56.9334 59.5353H60.2264C60.2556 59.5349 60.2845 59.5403 60.3116 59.5513C60.3386 59.5622 60.3632 59.5785 60.3839 59.599C60.4046 59.6196 60.4209 59.6441 60.432 59.6711C60.4431 59.6981 60.4486 59.7271 60.4484 59.7563V61.1633C60.4486 61.1924 60.4431 61.2214 60.432 61.2484C60.4209 61.2754 60.4046 61.2999 60.3839 61.3205C60.3632 61.3411 60.3386 61.3573 60.3116 61.3683C60.2845 61.3792 60.2556 61.3847 60.2264 61.3843H56.9334C56.9208 61.3826 56.908 61.3839 56.896 61.3879C56.884 61.392 56.8731 61.3989 56.8642 61.4079C56.8553 61.4169 56.8486 61.4278 56.8446 61.4399C56.8407 61.4519 56.8396 61.4647 56.8414 61.4773V65.0293C56.8396 65.0418 56.8407 65.0546 56.8446 65.0666C56.8486 65.0787 56.8553 65.0896 56.8642 65.0987C56.8731 65.1077 56.884 65.1145 56.896 65.1186C56.908 65.1227 56.9208 65.1239 56.9334 65.1223H62.0724C62.1015 65.1216 62.1305 65.127 62.1575 65.138C62.1845 65.149 62.209 65.1654 62.2294 65.1863C62.2503 65.2067 62.267 65.2311 62.2783 65.2581C62.2897 65.285 62.2955 65.314 62.2954 65.3433V66.7503C62.2956 66.7795 62.2898 66.8086 62.2785 66.8355C62.2672 66.8625 62.2504 66.8869 62.2294 66.9073C62.2091 66.9283 62.1847 66.9449 62.1577 66.9559C62.1306 66.9669 62.1016 66.9722 62.0724 66.9713H54.9174C54.8882 66.9722 54.8591 66.9669 54.8321 66.9559C54.8051 66.9449 54.7806 66.9283 54.7604 66.9073C54.7392 66.887 54.7226 66.8626 54.7114 66.8356C54.7002 66.8086 54.6947 66.7795 54.6954 66.7503V54.2423C54.6947 54.213 54.7001 54.1839 54.7113 54.1569C54.7225 54.1299 54.7392 54.1055 54.7604 54.0853C54.7807 54.0643 54.8051 54.0477 54.8321 54.0365C54.8591 54.0253 54.8882 54.0198 54.9174 54.0203H62.0724C62.1313 54.0205 62.1877 54.044 62.2294 54.0855C62.2712 54.1271 62.2949 54.1834 62.2954 54.2423V55.6483C62.2962 55.6773 62.2911 55.7061 62.2804 55.7331C62.2698 55.7601 62.2538 55.7846 62.2334 55.8053Z" fill="#03373E"/>
    <path d="M66.0211 66.9053C66.0001 66.885 65.9836 66.8605 65.9726 66.8335C65.9616 66.8065 65.9563 66.7774 65.9571 66.7483V54.2423C65.9562 54.2131 65.9615 54.184 65.9725 54.157C65.9835 54.1299 66.0001 54.1055 66.0211 54.0853C66.0417 54.0643 66.0663 54.0477 66.0934 54.0365C66.1206 54.0253 66.1498 54.0198 66.1791 54.0203H70.0081C71.0603 53.9693 72.0914 54.3277 72.8851 55.0203C73.2463 55.3605 73.5299 55.7746 73.7166 56.2343C73.9033 56.694 73.9888 57.1886 73.9671 57.6843V63.3073C73.9889 63.803 73.9035 64.2976 73.7168 64.7573C73.5301 65.2171 73.2464 65.6311 72.8851 65.9713C72.0914 66.6639 71.0603 67.0222 70.0081 66.9713H66.1791C66.1496 66.9719 66.1203 66.9664 66.0931 66.955C66.0659 66.9436 66.0414 66.9267 66.0211 66.9053ZM68.1951 65.1203L70.0261 65.1013C70.2662 65.111 70.5054 65.067 70.7263 64.9725C70.9472 64.8781 71.1443 64.7355 71.3031 64.5553C71.6442 64.1346 71.8275 63.6078 71.8211 63.0663V57.9233C71.85 57.3797 71.6753 56.845 71.3311 56.4233C71.1681 56.2402 70.9665 56.0955 70.7408 55.9997C70.5152 55.904 70.2711 55.8594 70.0261 55.8693H68.1951C68.1826 55.8675 68.1698 55.8686 68.1577 55.8725C68.1457 55.8765 68.1348 55.8832 68.1257 55.8921C68.1167 55.901 68.1099 55.9119 68.1058 55.9239C68.1017 55.9359 68.1004 55.9487 68.1021 55.9613V65.0263C68.1001 65.039 68.1011 65.052 68.105 65.0643C68.109 65.0765 68.1158 65.0877 68.1248 65.0968C68.1339 65.106 68.145 65.1129 68.1572 65.1169C68.1694 65.121 68.1824 65.1222 68.1951 65.1203Z" fill="#03373E"/>
    <path d="M77.8737 66.9053C77.8525 66.885 77.8358 66.8606 77.8247 66.8336C77.8135 66.8066 77.808 66.7775 77.8087 66.7483V54.2423C77.808 54.213 77.8134 54.1839 77.8246 54.1569C77.8358 54.1299 77.8525 54.1055 77.8737 54.0853C77.8938 54.0644 77.9181 54.0478 77.9449 54.0366C77.9718 54.0255 78.0006 54.0199 78.0297 54.0203H79.7297C79.759 54.0198 79.7882 54.0253 79.8154 54.0365C79.8425 54.0477 79.8671 54.0643 79.8877 54.0853C79.9086 54.1056 79.9252 54.13 79.9364 54.157C79.9476 54.184 79.9531 54.213 79.9527 54.2423V66.7483C79.9531 66.7775 79.9475 66.8065 79.9363 66.8335C79.9251 66.8604 79.9086 66.8849 79.8877 66.9053C79.8672 66.9263 79.8426 66.9429 79.8154 66.9539C79.7882 66.965 79.759 66.9702 79.7297 66.9693H78.0297C78.0006 66.9701 77.9717 66.9648 77.9449 66.9538C77.918 66.9428 77.8938 66.9262 77.8737 66.9053Z" fill="#03373E"/>
    <path d="M90.6016 66.7853L90.1216 64.8053C90.1182 64.7835 90.1067 64.7639 90.0895 64.7502C90.0723 64.7365 90.0506 64.7297 90.0286 64.7313H86.2186C86.1967 64.7297 86.175 64.7365 86.1578 64.7502C86.1405 64.7639 86.1291 64.7835 86.1256 64.8053L85.6626 66.7853C85.6489 66.842 85.6152 66.8919 85.5676 66.9257C85.52 66.9595 85.4617 66.975 85.4036 66.9693H83.6466C83.4856 66.9693 83.4246 66.8893 83.4616 66.7293L86.8286 54.2053C86.8425 54.1485 86.8763 54.0987 86.9238 54.0647C86.9713 54.0308 87.0295 54.015 87.0876 54.0203H89.1966C89.2548 54.015 89.3129 54.0308 89.3605 54.0647C89.408 54.0987 89.4418 54.1485 89.4556 54.2053L92.8226 66.7293L92.8416 66.8033C92.8416 66.9143 92.7726 66.9693 92.6416 66.9693H90.8616C90.8035 66.9746 90.7453 66.959 90.6977 66.9253C90.65 66.8915 90.6159 66.8419 90.6016 66.7853ZM86.5886 63.0203C86.6094 63.0375 86.6356 63.0471 86.6626 63.0473H89.5856C89.6124 63.0469 89.6381 63.0374 89.6586 63.0203C89.6708 63.0107 89.6794 62.9973 89.683 62.9822C89.6866 62.9672 89.6851 62.9513 89.6786 62.9373L88.1606 56.8693C88.1476 56.8323 88.1296 56.8133 88.1046 56.8133C88.0796 56.8133 88.0616 56.8323 88.0496 56.8693L86.5736 62.9373C86.5661 62.9507 86.5634 62.9663 86.5662 62.9815C86.5689 62.9966 86.5768 63.0104 86.5886 63.0203Z" fill="#03373E"/>
    <path d="M96.4166 66.9053C96.3957 66.8849 96.3791 66.8604 96.3679 66.8335C96.3567 66.8065 96.3512 66.7775 96.3516 66.7483V54.2423C96.3511 54.213 96.3567 54.184 96.3678 54.157C96.379 54.13 96.3956 54.1056 96.4166 54.0853C96.4371 54.0643 96.4617 54.0477 96.4889 54.0365C96.5161 54.0253 96.5452 54.0198 96.5746 54.0203H98.2746C98.3038 54.0201 98.3328 54.0258 98.3599 54.0369C98.3869 54.048 98.4115 54.0643 98.4322 54.0849C98.4529 54.1056 98.4694 54.1301 98.4806 54.1571C98.4918 54.1841 98.4976 54.213 98.4976 54.2423V65.0273C98.4956 65.0399 98.4965 65.0527 98.5004 65.0649C98.5043 65.077 98.511 65.0881 98.52 65.0971C98.5289 65.1062 98.5399 65.113 98.552 65.117C98.5641 65.121 98.577 65.1222 98.5896 65.1203H103.678C103.707 65.12 103.736 65.1255 103.762 65.1365C103.789 65.1476 103.814 65.1638 103.834 65.1844C103.855 65.205 103.871 65.2294 103.882 65.2564C103.893 65.2833 103.899 65.3122 103.899 65.3413V66.7483C103.899 66.7774 103.894 66.8064 103.883 66.8334C103.872 66.8604 103.855 66.8848 103.835 66.9053C103.814 66.9262 103.79 66.9426 103.763 66.9536C103.736 66.9647 103.707 66.97 103.678 66.9693H96.5736C96.5444 66.97 96.5154 66.9647 96.4884 66.9537C96.4614 66.9427 96.4369 66.9262 96.4166 66.9053Z" fill="#03373E"/>
    <path d="M114.939 55.8053C114.919 55.8262 114.895 55.8428 114.868 55.8539C114.841 55.8651 114.812 55.8707 114.782 55.8703H109.64C109.628 55.8682 109.615 55.8692 109.603 55.8731C109.591 55.877 109.58 55.8837 109.571 55.8926C109.561 55.9016 109.555 55.9126 109.551 55.9247C109.547 55.9368 109.546 55.9497 109.547 55.9623V59.4423C109.546 59.4549 109.547 59.4678 109.551 59.4799C109.555 59.4921 109.562 59.5031 109.571 59.5121C109.58 59.5211 109.591 59.5279 109.603 59.532C109.615 59.536 109.628 59.5371 109.64 59.5353H112.932C112.962 59.5347 112.991 59.5401 113.018 59.5511C113.045 59.5621 113.069 59.5785 113.089 59.5993C113.11 59.6197 113.127 59.6442 113.138 59.6711C113.149 59.6981 113.155 59.7271 113.154 59.7563V61.1633C113.155 61.1924 113.149 61.2213 113.138 61.2482C113.127 61.2752 113.11 61.2996 113.09 61.3202C113.069 61.3408 113.044 61.357 113.017 61.368C112.99 61.379 112.962 61.3845 112.932 61.3843H109.64C109.628 61.3824 109.615 61.3835 109.603 61.3876C109.591 61.3916 109.58 61.3984 109.571 61.4074C109.562 61.4165 109.555 61.4275 109.551 61.4396C109.547 61.4517 109.546 61.4646 109.547 61.4773V65.0293C109.546 65.0419 109.547 65.0548 109.551 65.0669C109.555 65.0791 109.562 65.0901 109.571 65.0991C109.58 65.1081 109.591 65.1149 109.603 65.119C109.615 65.123 109.628 65.1241 109.64 65.1223H114.782C114.812 65.1217 114.841 65.127 114.868 65.1381C114.895 65.1491 114.919 65.1655 114.939 65.1863C114.96 65.2067 114.977 65.2312 114.988 65.2581C114.999 65.2851 115.005 65.3141 115.004 65.3433V66.7503C115.005 66.7795 114.999 66.8085 114.988 66.8355C114.977 66.8625 114.96 66.8869 114.939 66.9073C114.919 66.9283 114.895 66.9448 114.868 66.9558C114.841 66.9668 114.812 66.9721 114.782 66.9713H107.622C107.593 66.9721 107.564 66.9669 107.538 66.9559C107.511 66.9448 107.486 66.9283 107.466 66.9073C107.445 66.8871 107.428 66.8627 107.417 66.8357C107.406 66.8087 107.4 66.7796 107.4 66.7503V54.2423C107.401 54.1835 107.424 54.1274 107.466 54.0859C107.508 54.0443 107.564 54.0208 107.622 54.0203H114.782C114.841 54.0203 114.898 54.0437 114.939 54.0853C114.981 54.1269 115.004 54.1834 115.004 54.2423V55.6483C115.005 55.6775 114.999 55.7065 114.988 55.7335C114.977 55.7605 114.96 55.7849 114.939 55.8053Z" fill="#03373E"/>
    <path d="M120.234 66.6833C119.646 66.4176 119.148 65.9868 118.801 65.4433C118.455 64.886 118.279 64.2407 118.292 63.5853V63.1033C118.291 63.074 118.296 63.045 118.308 63.0179C118.319 62.9909 118.336 62.9665 118.357 62.9463C118.377 62.9252 118.402 62.9085 118.429 62.8973C118.456 62.8861 118.485 62.8807 118.515 62.8813H120.18C120.209 62.881 120.238 62.8866 120.265 62.8978C120.292 62.9089 120.316 62.9254 120.337 62.9463C120.357 62.9667 120.374 62.9912 120.385 63.0182C120.396 63.0452 120.401 63.0741 120.401 63.1033V63.4733C120.393 63.7166 120.438 63.9587 120.534 64.1825C120.63 64.4063 120.774 64.6062 120.956 64.7683C121.374 65.1187 121.91 65.2974 122.456 65.2683C122.941 65.3013 123.419 65.1422 123.788 64.8253C123.942 64.674 124.063 64.4921 124.142 64.2913C124.222 64.0904 124.259 63.8751 124.25 63.6593C124.258 63.3523 124.167 63.0508 123.991 62.7993C123.791 62.5338 123.543 62.308 123.261 62.1333C122.945 61.9293 122.461 61.6549 121.809 61.3103C121.185 60.9916 120.58 60.6395 119.995 60.2553C119.534 59.9423 119.14 59.5396 118.839 59.0713C118.447 58.3947 118.293 57.6068 118.4 56.8325C118.507 56.0582 118.87 55.3419 119.431 54.7973C120.218 54.1544 121.215 53.8253 122.231 53.8733C122.965 53.8587 123.694 54.0137 124.359 54.3263C124.95 54.6058 125.445 55.053 125.784 55.6123C126.122 56.1876 126.295 56.845 126.284 57.5123V57.9013C126.284 57.9304 126.279 57.9594 126.268 57.9864C126.257 58.0134 126.24 58.0378 126.22 58.0583C126.199 58.0792 126.175 58.0958 126.147 58.107C126.12 58.1181 126.091 58.1237 126.062 58.1233H124.397C124.368 58.1234 124.339 58.1177 124.312 58.1066C124.285 58.0955 124.26 58.0791 124.24 58.0585C124.219 58.0378 124.203 58.0133 124.192 57.9863C124.181 57.9593 124.175 57.9304 124.176 57.9013V57.5493C124.183 57.305 124.139 57.0621 124.046 56.8359C123.954 56.6098 123.815 56.4055 123.639 56.2363C123.444 56.0588 123.216 55.9217 122.969 55.8328C122.721 55.7438 122.458 55.7049 122.195 55.7183C121.738 55.6931 121.288 55.8418 120.937 56.1343C120.683 56.3976 120.524 56.7374 120.484 57.1006C120.444 57.4639 120.526 57.8301 120.716 58.1423C120.912 58.4107 121.16 58.6372 121.446 58.8083C121.773 59.0183 122.269 59.2896 122.935 59.6223C123.823 60.1283 124.477 60.5229 124.896 60.8063C125.322 61.0965 125.684 61.4708 125.961 61.9063C126.263 62.4044 126.414 62.9798 126.395 63.5623C126.416 64.0478 126.329 64.532 126.14 64.9799C125.952 65.4279 125.666 65.8283 125.304 66.1523C124.483 66.8255 123.441 67.1685 122.381 67.1143C121.642 67.1307 120.909 66.9835 120.234 66.6833Z" fill="#03373E"/>
    <path d="M131.739 66.6833C131.15 66.4185 130.652 65.9875 130.305 65.4433C129.959 64.886 129.783 64.2407 129.796 63.5853V63.1033C129.795 63.074 129.8 63.045 129.812 63.0179C129.823 62.9909 129.839 62.9665 129.861 62.9463C129.881 62.9253 129.905 62.9087 129.932 62.8975C129.959 62.8863 129.988 62.8808 130.018 62.8813H131.684C131.713 62.881 131.742 62.8866 131.769 62.8978C131.796 62.9089 131.82 62.9254 131.841 62.9463C131.861 62.9667 131.878 62.9912 131.889 63.0182C131.9 63.0452 131.905 63.0741 131.905 63.1033V63.4733C131.897 63.7166 131.942 63.9586 132.038 64.1824C132.134 64.4061 132.278 64.6061 132.46 64.7683C132.878 65.1187 133.414 65.2974 133.96 65.2683C134.445 65.3013 134.923 65.1422 135.292 64.8253C135.446 64.674 135.567 64.4921 135.646 64.2913C135.726 64.0904 135.762 63.8751 135.754 63.6593C135.762 63.3523 135.671 63.0508 135.495 62.7993C135.295 62.5338 135.047 62.308 134.765 62.1333C134.45 61.9293 133.966 61.6549 133.312 61.3103C132.689 60.9914 132.084 60.6393 131.499 60.2553C131.038 59.9423 130.644 59.5396 130.343 59.0713C129.951 58.3947 129.797 57.6068 129.904 56.8325C130.011 56.0582 130.374 55.3419 130.935 54.7973C131.722 54.1545 132.719 53.8254 133.735 53.8733C134.469 53.8588 135.197 54.0138 135.862 54.3263C136.453 54.6058 136.948 55.053 137.287 55.6123C137.625 56.1876 137.798 56.845 137.787 57.5123V57.9013C137.787 57.9305 137.781 57.9595 137.77 57.9865C137.759 58.0136 137.743 58.0382 137.722 58.0588C137.701 58.0795 137.677 58.0958 137.65 58.1069C137.623 58.118 137.594 58.1235 137.565 58.1233H135.9C135.87 58.1237 135.841 58.1182 135.814 58.107C135.787 58.0958 135.763 58.0792 135.743 58.0583C135.721 58.038 135.705 58.0136 135.694 57.9866C135.682 57.9596 135.677 57.9305 135.678 57.9013V57.5493C135.685 57.305 135.641 57.0619 135.548 56.8358C135.456 56.6096 135.317 56.4054 135.141 56.2363C134.946 56.0588 134.719 55.9217 134.471 55.8328C134.224 55.7438 133.961 55.7049 133.699 55.7183C133.241 55.6928 132.792 55.8414 132.44 56.1343C132.283 56.2819 132.161 56.4617 132.081 56.6614C132.001 56.861 131.966 57.0756 131.978 57.2903C131.968 57.592 132.052 57.8892 132.219 58.1413C132.415 58.4095 132.663 58.6359 132.949 58.8073C133.275 59.0173 133.772 59.2886 134.438 59.6213C135.327 60.1273 135.981 60.5219 136.4 60.8053C136.825 61.0961 137.187 61.4703 137.464 61.9053C137.766 62.4034 137.917 62.9788 137.898 63.5613C137.919 64.0468 137.832 64.531 137.643 64.979C137.455 65.4269 137.169 65.8273 136.807 66.1513C135.986 66.8245 134.944 67.1675 133.884 67.1133C133.146 67.13 132.413 66.9832 131.739 66.6833Z" fill="#03373E"/>
    <path d="M143.35 66.6363C142.741 66.3166 142.24 65.8244 141.908 65.2213C141.559 64.571 141.383 63.8414 141.399 63.1033V57.8863C141.385 57.154 141.56 56.4305 141.908 55.7863C142.239 55.1827 142.741 54.6902 143.35 54.3703C144.025 54.0419 144.765 53.8713 145.515 53.8713C146.266 53.8713 147.006 54.0419 147.68 54.3703C148.291 54.6916 148.796 55.1835 149.132 55.7863C149.486 56.4289 149.665 57.153 149.65 57.8863V63.1033C149.666 63.8424 149.487 64.5727 149.132 65.2213C148.796 65.8237 148.291 66.3154 147.68 66.6363C147.006 66.9653 146.266 67.1363 145.515 67.1363C144.765 67.1363 144.025 66.9653 143.35 66.6363ZM146.958 64.7043C147.331 64.2925 147.527 63.7511 147.504 63.1963V57.8313C147.529 57.2704 147.333 56.7222 146.958 56.3043C146.772 56.1098 146.545 55.9573 146.295 55.8569C146.045 55.7566 145.776 55.7107 145.506 55.7223C145.241 55.711 144.977 55.7571 144.731 55.8576C144.485 55.958 144.264 56.1104 144.082 56.3043C143.713 56.7247 143.52 57.272 143.545 57.8313V63.1963C143.523 63.7495 143.715 64.29 144.082 64.7043C144.264 64.8981 144.485 65.0505 144.731 65.1511C144.977 65.2517 145.241 65.2982 145.506 65.2873C145.776 65.2987 146.045 65.2527 146.295 65.1522C146.546 65.0516 146.772 64.899 146.958 64.7043Z" fill="#03373E"/>
    <path d="M159.948 54.0853C159.969 54.0643 159.993 54.0477 160.02 54.0365C160.047 54.0253 160.076 54.0198 160.105 54.0203H161.805C161.835 54.0198 161.864 54.0254 161.891 54.0366C161.918 54.0477 161.943 54.0643 161.963 54.0853C161.984 54.1057 162.001 54.1301 162.012 54.1571C162.023 54.1841 162.028 54.2131 162.027 54.2423V66.7483C162.028 66.7775 162.022 66.8064 162.011 66.8334C162 66.8604 161.984 66.8849 161.963 66.9055C161.942 66.9261 161.918 66.9423 161.891 66.9533C161.864 66.9642 161.835 66.9697 161.805 66.9693H160.013C159.959 66.9695 159.905 66.954 159.859 66.9245C159.813 66.8951 159.777 66.853 159.754 66.8033L155.721 58.5153C155.695 58.4783 155.671 58.4633 155.646 58.4693C155.621 58.4753 155.609 58.5033 155.609 58.5523L155.628 66.7523C155.629 66.7815 155.623 66.8105 155.612 66.8375C155.601 66.8645 155.584 66.8889 155.563 66.9093C155.543 66.9303 155.519 66.9468 155.492 66.9578C155.465 66.9688 155.436 66.9741 155.406 66.9733H153.706C153.677 66.9742 153.648 66.9689 153.621 66.9579C153.594 66.9469 153.57 66.9303 153.549 66.9093C153.528 66.8889 153.512 66.8645 153.501 66.8375C153.49 66.8105 153.484 66.7815 153.484 66.7523V54.2423C153.484 54.1834 153.508 54.1269 153.549 54.0853C153.591 54.0437 153.648 54.0203 153.706 54.0203H155.482C155.538 54.0171 155.592 54.0314 155.639 54.0613C155.685 54.0911 155.721 54.1348 155.741 54.1863L159.793 62.5113C159.817 62.5483 159.842 62.5643 159.867 62.5573C159.892 62.5503 159.903 62.5243 159.903 62.4743L159.883 54.2423C159.883 54.213 159.888 54.1839 159.899 54.1569C159.911 54.1299 159.927 54.1055 159.948 54.0853Z" fill="#03373E"/>
</svg>
