<svg width="42" height="36" viewBox="0 0 42 36" fill="none" xmlns="http://www.w3.org/2000/svg">
    <path
        d="M37.5002 3.52815H33.8564V2.15315C33.8564 1.32815 33.1689 0.571899 32.2752 0.571899C31.3814 0.571899 30.6939 1.2594 30.6939 2.15315V3.52815H11.2377V2.15315C11.2377 1.32815 10.5502 0.571899 9.65645 0.571899C8.7627 0.571899 8.0752 1.2594 8.0752 2.15315V3.52815H4.5002C2.1627 3.52815 0.168945 5.45315 0.168945 7.8594V31.0969C0.168945 33.4344 2.09395 35.4282 4.5002 35.4282H37.5002C39.8377 35.4282 41.8314 33.5031 41.8314 31.0969V7.79065C41.8314 5.45315 39.8377 3.52815 37.5002 3.52815ZM4.5002 6.6219H8.14395V7.92815C8.14395 8.75315 8.83145 9.5094 9.7252 9.5094C10.6189 9.5094 11.3064 8.8219 11.3064 7.92815V6.6219H30.7627V7.92815C30.7627 8.75315 31.4502 9.5094 32.3439 9.5094C33.2377 9.5094 33.9252 8.8219 33.9252 7.92815V6.6219H37.5002C38.1877 6.6219 38.7377 7.1719 38.7377 7.8594V12.1907H3.33145V7.8594C3.33145 7.1719 3.8127 6.6219 4.5002 6.6219ZM37.5002 32.2656H4.5002C3.8127 32.2656 3.2627 31.7156 3.2627 31.0281V15.2156H38.6689V31.0281C38.7377 31.7156 38.1877 32.2656 37.5002 32.2656Z"
        fill="white" />
    <path
        d="M21 17.2094C20.3812 16.9344 19.7625 16.7969 19.075 16.7969C17.8375 16.7969 16.6687 17.2781 15.7062 18.1031C14.7437 18.9969 14.1938 20.2344 14.125 21.6094C14.125 23.0531 14.675 24.4281 15.6375 25.3906L19.2125 28.9656C19.6937 29.4469 20.3125 29.6531 20.9312 29.6531C21.55 29.6531 22.1688 29.4469 22.65 28.9656L26.3625 25.2531C27.325 24.2906 27.8063 23.0531 27.8063 21.7469C27.8063 20.4406 27.325 19.2031 26.3625 18.2406C24.9187 16.7969 22.7875 16.4531 21 17.2094ZM24.2313 23.1219L21 26.3531L17.9062 23.2594C17.4938 22.8469 17.2875 22.2969 17.2875 21.7469C17.2875 21.2656 17.4937 20.7844 17.8375 20.5094C18.1812 20.1656 18.5938 20.0281 19.075 20.0281C19.4188 20.0281 19.8313 20.1656 20.1063 20.3719C20.6563 20.7156 21.3437 20.7156 21.8937 20.3719C22.65 19.8906 23.6125 19.9594 24.2313 20.5781C24.575 20.9219 24.7812 21.4031 24.7812 21.8844C24.7812 22.2969 24.575 22.7781 24.2313 23.1219Z"
        fill="white" />
</svg>
    