<svg width="44" height="44" viewBox="0 0 44 44" fill="none" xmlns="http://www.w3.org/2000/svg">
    <path
        d="M21.9309 13.8875C21.1059 13.475 20.2809 13.3375 19.3871 13.3375C19.3184 13.3375 19.3184 13.3375 19.2496 13.3375C17.7371 13.3375 16.2934 13.8875 15.1246 14.9188C13.8871 16.0188 13.1996 17.5313 13.1996 19.25C13.1309 21.0375 13.8871 22.7563 15.1246 23.9938L20.0059 28.875C20.5559 29.425 21.2434 29.7 21.9309 29.7C22.6184 29.7 23.3059 29.425 23.8559 28.875L28.8746 23.8563C30.0434 22.6875 30.6621 21.1063 30.6621 19.525C30.6621 17.875 30.0434 16.2938 28.8746 15.125C27.0871 13.2 24.2684 12.7875 21.9309 13.8875ZM26.7434 21.6563L21.9309 26.4688L17.3246 21.8625C16.6371 21.175 16.2934 20.2813 16.2934 19.3875C16.2934 18.5625 16.6371 17.8063 17.2559 17.2563C17.8059 16.7063 18.5621 16.4313 19.3184 16.4313C19.9371 16.4313 20.5559 16.6375 21.0371 16.9813C21.5871 17.325 22.2746 17.325 22.8246 16.9813C24.0621 16.1563 25.7121 16.2938 26.7434 17.325C27.3621 17.9438 27.6371 18.7 27.6371 19.525C27.7059 20.2813 27.3621 21.0375 26.7434 21.6563Z"
        fill="white" />
    <path
        d="M22 1.16876C11.9625 1.16876 3.78125 9.35001 3.78125 19.4563C3.78125 31.7625 20.4875 42.1438 21.175 42.625C21.45 42.7625 21.725 42.8313 22 42.8313C22.275 42.8313 22.55 42.7625 22.825 42.625C23.5125 42.2125 40.2188 31.625 40.2188 19.4563C40.2188 9.35001 32.0375 1.16876 22 1.16876ZM22 39.3938C18.7688 37.1938 6.875 28.6 6.875 19.3875C6.875 11.0688 13.6812 4.26251 22 4.26251C30.3188 4.26251 37.125 11.0688 37.125 19.3875C37.125 28.4625 25.2313 37.1938 22 39.3938Z"
        fill="white" />
</svg>
    