<svg width="44" height="44" viewBox="0 0 44 44" fill="none" xmlns="http://www.w3.org/2000/svg">
    <path
        d="M36.9083 6.97053C32.577 2.57053 26.527 0.439278 20.4083 1.12678C10.852 2.08928 3.28952 9.72053 2.25827 19.208C1.84577 23.608 2.73952 27.8705 4.93952 31.583L2.18952 38.733C1.77702 39.6955 2.05202 40.8643 2.87702 41.5518C3.35827 41.9643 3.97702 42.2393 4.59577 42.2393C5.00827 42.2393 5.35201 42.1705 5.76451 41.9643L12.0208 38.8018C15.802 41.0705 20.0645 42.033 24.5333 41.6205C34.1583 40.7268 41.8583 33.0955 42.8208 23.4018C43.4395 17.283 41.3083 11.3018 36.9083 6.97053ZM39.727 23.1268C38.902 31.308 32.3708 37.7705 24.1895 38.5268C20.1333 38.9393 16.2833 37.908 12.9145 35.708C12.6395 35.5018 12.3645 35.433 12.0895 35.433C11.8833 35.433 11.6083 35.5018 11.402 35.5705L5.55826 38.458L8.10202 31.858C8.30827 31.3768 8.23951 30.8955 7.96451 30.483C5.83326 27.183 4.93951 23.333 5.35202 19.3455C6.17701 11.4393 12.6395 5.04553 20.6833 4.22053C25.9083 3.67053 31.0645 5.45803 34.7083 9.17053C38.4208 12.8143 40.277 17.9018 39.727 23.1268Z"
        fill="white" />
    <path
        d="M16.7648 16.0456H26.9398C27.7648 16.0456 28.5211 15.3581 28.5211 14.4643C28.5211 13.5706 27.8336 12.8831 26.9398 12.8831H16.7648C15.9398 12.8831 15.1836 13.5706 15.1836 14.4643C15.1836 15.3581 15.9398 16.0456 16.7648 16.0456Z"
        fill="white" />
    <path
        d="M30.9961 20.033H16.7648C15.9398 20.033 15.1836 20.7205 15.1836 21.6143C15.1836 22.508 15.8711 23.1268 16.7648 23.1268H30.9961C31.8211 23.1268 32.5773 22.4393 32.5773 21.6143C32.5773 20.7893 31.8211 20.033 30.9961 20.033Z"
        fill="white" />
    <path
        d="M23.9148 27.183H16.7648C15.9398 27.183 15.1836 27.8705 15.1836 28.7643C15.1836 29.658 15.8711 30.3455 16.7648 30.3455H23.8461C24.6711 30.3455 25.4273 29.658 25.4273 28.7643C25.4273 27.8705 24.7398 27.183 23.9148 27.183Z"
        fill="white" />
</svg>
    