<svg width="44" height="44" viewBox="0 0 44 44" fill="none" xmlns="http://www.w3.org/2000/svg">
    <g clip-path="url(#clip0_136_530)">
        <path
            d="M31.8315 24.2687H12.169C11.6877 24.2687 11.2065 24.475 10.9315 24.8875C10.6565 25.3 10.519 25.7812 10.6565 26.2625C12.1002 31.35 16.7752 34.925 22.0002 34.925C27.3627 34.925 31.9002 31.4875 33.344 26.2625C33.4815 25.7812 33.4127 25.3 33.069 24.8875C32.794 24.475 32.3127 24.2687 31.8315 24.2687ZM22.0002 31.7625C18.8377 31.7625 16.019 30.0437 14.4377 27.3625H29.5627C28.0502 30.0437 25.2315 31.7625 22.0002 31.7625Z"
            fill="white" />
        <path
            d="M21.9998 0.549988C10.1748 0.549988 0.549805 10.175 0.549805 22C0.549805 33.825 10.1748 43.5187 22.0686 43.5187C33.9623 43.5187 43.5873 33.8937 43.5873 22C43.5873 10.1062 33.8248 0.549988 21.9998 0.549988ZM21.9998 40.425C11.8248 40.425 3.5748 32.175 3.5748 22C3.5748 11.825 11.8936 3.64374 21.9998 3.64374C32.1061 3.64374 40.4248 11.8937 40.4248 22.0687C40.4248 32.2437 32.1748 40.425 21.9998 40.425Z"
            fill="white" />
        <path
            d="M13.75 18.425C15.2688 18.425 16.5 17.1938 16.5 15.675C16.5 14.1562 15.2688 12.925 13.75 12.925C12.2312 12.925 11 14.1562 11 15.675C11 17.1938 12.2312 18.425 13.75 18.425Z"
            fill="white" />
        <path
            d="M30.25 18.425C31.7688 18.425 33 17.1938 33 15.675C33 14.1562 31.7688 12.925 30.25 12.925C28.7312 12.925 27.5 14.1562 27.5 15.675C27.5 17.1938 28.7312 18.425 30.25 18.425Z"
            fill="white" />
    </g>
    <defs>
        <clipPath id="clip0_136_530">
            <rect width="44" height="44" fill="white" />
        </clipPath>
    </defs>
</svg>
    